<svg id="visual" viewBox="0 0 450 900" width="450" height="900" xmlns="http://www.w3.org/2000/svg" xmlns:xlink="http://www.w3.org/1999/xlink" version="1.1"><rect x="0" y="0" width="450" height="900" fill="#333"></rect><defs><linearGradient id="grad1_0" x1="0%" y1="100%" x2="100%" y2="0%"><stop offset="30%" stop-color="#333333" stop-opacity="1"></stop><stop offset="70%" stop-color="#333333" stop-opacity="1"></stop></linearGradient></defs><defs><linearGradient id="grad2_0" x1="0%" y1="100%" x2="100%" y2="0%"><stop offset="30%" stop-color="#333333" stop-opacity="1"></stop><stop offset="70%" stop-color="#333333" stop-opacity="1"></stop></linearGradient></defs><g transform="translate(450, 900)"><path d="M-315 0C-309.4 -59.6 -303.7 -119.2 -272.8 -157.5C-241.9 -195.8 -185.7 -212.9 -136 -235.6C-86.3 -258.3 -43.2 -286.6 0 -315L0 0Z" fill="#222"></path></g><g transform="translate(0, 0)"><path d="M315 0C310.1 60.9 305.2 121.7 272.8 157.5C240.4 193.3 180.5 204 130.5 226C80.5 248.1 40.2 281.6 0 315L0 0Z" fill="#222"></path></g></svg>