<svg xmlns="http://www.w3.org/2000/svg" viewBox="0 0 750 500"><g id="freepik--background-complete--inject-8"><rect x="270.6" y="110.5" width="338.21" height="226.52" style="fill:#f0f0f0"></rect><rect x="270.6" y="110.5" width="338.21" height="22.63" style="fill:#e6e6e6"></rect><path d="M285.25,121.81a2.74,2.74,0,1,1-2.74-2.54A2.65,2.65,0,0,1,285.25,121.81Z" style="fill:#fff"></path><path d="M294.07,121.81a2.74,2.74,0,1,1-2.74-2.54A2.65,2.65,0,0,1,294.07,121.81Z" style="fill:#fff"></path><path d="M302.89,121.81a2.74,2.74,0,1,1-2.73-2.54A2.65,2.65,0,0,1,302.89,121.81Z" style="fill:#fff"></path><path d="M645.39,125a10.42,10.42,0,0,0,6.21-9.65c0-5.76-4.33-10.45-9.73-10.47s-9.8,4.62-9.82,10.38a10.41,10.41,0,0,0,6.23,9.74c-15,2.26-14.37,18.62-14.37,18.62l35.59.16S660.31,127.27,645.39,125Z" style="fill:#e0e0e0"></path><rect x="75.16" y="85.45" width="174.63" height="70.63" rx="6.01" transform="translate(324.95 241.53) rotate(180)" style="fill:#ebebeb"></rect><circle cx="118.71" cy="120.77" r="27.68" style="fill:#fafafa"></circle><path d="M131.72,112.28a9.59,9.59,0,0,1-5.07-2.3,6.71,6.71,0,0,1-11.84,1.32,25.42,25.42,0,0,1-1.94,7.15,10.89,10.89,0,0,1-3.51,4.29c0,2.55,0,6.6-.06,6.72a3,3,0,0,1-1,.21l.46,5.61a3.22,3.22,0,0,1-.81-.5L108,146.3a27.62,27.62,0,0,0,17.12,1.39c.13-1.85.26-4.55.34-6.3h0c-7,.2-8.89-5-8.89-5a16.34,16.34,0,0,0,9,3.16v.1c.14,0,7.08-.73,7.6-7.67.37-5.06.36-14.89.33-20A2.68,2.68,0,0,1,131.72,112.28ZM122,120.85a1,1,0,0,1-1.43.25,1,1,0,1,1,1.43-.25Zm.38-1.37c-.11.11-.77-.46-1.74-.53s-1.69.39-1.79.26.07-.27.39-.48a2.43,2.43,0,0,1,1.45-.36,2.32,2.32,0,0,1,1.38.57C122.31,119.2,122.4,119.42,122.34,119.48ZM124,131.1c-2-.9-1.44-2.54-1.44-2.54-1-.66,2.68,1.65,4.66,1.67A2.67,2.67,0,0,1,124,131.1Zm4.26-3.66a.67.67,0,0,1-.46.37,1.77,1.77,0,0,1-.44,0,4.79,4.79,0,0,1-1.59-.15,4.63,4.63,0,0,1,1.58-.24c.26,0,.46,0,.49-.19a1.42,1.42,0,0,0-.14-.73l-.64-2a26.22,26.22,0,0,1-1.34-5.27,27.42,27.42,0,0,1,1.86,5.1c.21.7.41,1.37.6,2A1.62,1.62,0,0,1,128.22,127.44Zm4.32-6.65a1,1,0,0,1-1.43-1.47,1,1,0,1,1,1.43,1.47Zm.36-1.52c-.12.12-.78-.46-1.74-.52s-1.7.39-1.8.26.07-.27.39-.48a2.3,2.3,0,0,1,1.45-.36,2.38,2.38,0,0,1,1.38.56C132.86,119,133,119.22,132.9,119.27Z" style="fill:#f5f5f5"></path><path d="M131.11,119.32a1,1,0,1,0,1.45,0A1,1,0,0,0,131.11,119.32Z" style="fill:#e0e0e0"></path><path d="M129.75,118.53c-.32.21-.44.42-.39.48s.83-.34,1.8-.26,1.62.64,1.74.52,0-.28-.32-.54a2.38,2.38,0,0,0-1.38-.56A2.3,2.3,0,0,0,129.75,118.53Z" style="fill:#e0e0e0"></path><path d="M120.29,119.68a1,1,0,0,0,.24,1.42,1,1,0,0,0,1.43-.25,1,1,0,0,0-.25-1.42A1,1,0,0,0,120.29,119.68Z" style="fill:#e0e0e0"></path><path d="M120.65,118.37a2.43,2.43,0,0,0-1.45.36c-.32.21-.44.43-.39.48s.83-.34,1.79-.26,1.63.64,1.74.53,0-.28-.31-.54A2.32,2.32,0,0,0,120.65,118.37Z" style="fill:#e0e0e0"></path><path d="M127.54,124.35a27.42,27.42,0,0,0-1.86-5.1,26.22,26.22,0,0,0,1.34,5.27l.64,2a1.42,1.42,0,0,1,.14.73c0,.14-.23.18-.49.19a4.63,4.63,0,0,0-1.58.24,4.79,4.79,0,0,0,1.59.15,1.77,1.77,0,0,0,.44,0,.67.67,0,0,0,.46-.37,1.62,1.62,0,0,0-.08-1.06C128,125.72,127.75,125.05,127.54,124.35Z" style="fill:#e0e0e0"></path><path d="M122.52,128.56s-.61,1.64,1.44,2.54a2.67,2.67,0,0,0,3.22-.87C125.2,130.21,121.55,127.9,122.52,128.56Z" style="fill:#fff"></path><path d="M116.58,136.42s1.85,5.18,8.89,5h0l.09-1.71v-.1A16.34,16.34,0,0,1,116.58,136.42Z" style="fill:#e0e0e0"></path><path d="M130.64,104.51c-.39,0-.95-2.37-3.7-3a5.52,5.52,0,0,0-4.6,1.24c-1.22-.3-3.54-2-6.69-1.3-2.21.48-4.47,2.5-5.94,4.22a14.39,14.39,0,0,1-1.79,2.1A21.83,21.83,0,0,1,106,109a7.08,7.08,0,0,0-3,5.69,12.45,12.45,0,0,0,1.73,6.35l.3.56a4.19,4.19,0,0,1,4.29-.83s0,.85,0,2a10.89,10.89,0,0,0,3.51-4.29,25.42,25.42,0,0,0,1.94-7.15A6.71,6.71,0,0,0,126.65,110a9.59,9.59,0,0,0,5.07,2.3,2.68,2.68,0,0,0,1.77-.25l.15-.08c.64-.51.42-1.47.62-2.27C134.79,107.53,134.54,104.79,130.64,104.51Z" style="fill:#e0e0e0"></path><path d="M108.25,129.67c-1.24.09-3.25-.11-4.13-1.81-.06.14-.12.29-.17.44a2.7,2.7,0,0,0,.32,2.43,1.53,1.53,0,0,0,2.23.21,4,4,0,0,0,1.4,3.84,3.22,3.22,0,0,0,.81.5Z" style="fill:#e0e0e0"></path><path d="M108.25,129.67a3,3,0,0,0,1-.21c0-.12,0-4.17.06-6.72,0-1.17,0-2,0-2a4.19,4.19,0,0,0-4.29.83,5.68,5.68,0,0,0-1.36,3.41,4.91,4.91,0,0,0,.4,2.9C105,129.56,107,129.76,108.25,129.67Zm-2.4-6.55a1.49,1.49,0,0,1,1.19-.8.79.79,0,0,1,.56.22.7.7,0,0,1,.19.4c0,.25-.11.35-.12.34s0-.13,0-.31a.53.53,0,0,0-.58-.35,1.21,1.21,0,0,0-.87.7,3.54,3.54,0,0,0-.46,1.45,2.59,2.59,0,0,0,.92,2.44,1.05,1.05,0,0,0,.78.07c.18-.06.27-.14.3-.12s0,.15-.23.27a1.11,1.11,0,0,1-1,0,2.71,2.71,0,0,1-1.22-2.74A3.63,3.63,0,0,1,105.85,123.12Z" style="fill:#f5f5f5"></path><path d="M106.52,127.48a1.11,1.11,0,0,0,1,0c.2-.12.24-.25.23-.27s-.12.06-.3.12a1.05,1.05,0,0,1-.78-.07,2.59,2.59,0,0,1-.92-2.44,3.54,3.54,0,0,1,.46-1.45,1.21,1.21,0,0,1,.87-.7.53.53,0,0,1,.58.35c.06.18,0,.29,0,.31s.14-.09.12-.34a.7.7,0,0,0-.19-.4.79.79,0,0,0-.56-.22,1.49,1.49,0,0,0-1.19.8,3.63,3.63,0,0,0-.55,1.62A2.71,2.71,0,0,0,106.52,127.48Z" style="fill:#e0e0e0"></path><rect x="157.93" y="110.26" width="74.3" height="4.85" style="fill:#e0e0e0"></rect><rect x="157.93" y="122.87" width="74.3" height="4.85" style="fill:#e0e0e0"></rect><path d="M111.91,197.24c-2.19-2.61-6.15-2.51-8.68-.42a10.62,10.62,0,0,0-4,8,10.82,10.82,0,0,0-5.19-7.41c-2.81-1.75-6.78-1.33-8.62,1.55a8.3,8.3,0,0,0-.89,6,11.46,11.46,0,0,0,2.5,5.61c4.85,5.17,7.37,6,13.4,9.49,5.48-4.26,7.25-5.36,11.36-11.12a11.49,11.49,0,0,0,1.72-5.88A8.37,8.37,0,0,0,111.91,197.24Z" style="fill:#e0e0e0"></path></g><g id="freepik--Floor--inject-8"><path d="M685.46,428.84c0,.15-137.58.26-307.27.26S70.9,429,70.9,428.84s137.55-.26,307.29-.26S685.46,428.7,685.46,428.84Z" style="fill:#263238"></path></g><g id="freepik--Device--inject-8"><path d="M547.23,128H206.8a10.61,10.61,0,0,0-10.62,10.62V379.08a10.62,10.62,0,0,0,10.62,10.63H337.46s8.31,25.7-17.46,39H442.17s-29.08-10-21.61-39H547.23a10.63,10.63,0,0,0,10.63-10.62V138.63A10.62,10.62,0,0,0,547.23,128Z" style="fill:#263238"></path><path d="M381.56,364.42c4.63,6.62-2.62,13.87-9.24,9.24a2.33,2.33,0,0,1-.56-.57c-4.62-6.62,2.62-13.86,9.23-9.24A2.37,2.37,0,0,1,381.56,364.42Z" style="fill:#455a64"></path><rect x="203.86" y="142.42" width="345.61" height="205" rx="3.27" style="fill:#e6e6e6"></rect><rect x="203.56" y="157.54" width="345.61" height="189.98" style="fill:#fff"></rect><path d="M232.2,150.34a2.76,2.76,0,1,1-2.76-2.76A2.76,2.76,0,0,1,232.2,150.34Z" style="fill:#455a64"></path><path d="M215.47,150.34a2.76,2.76,0,1,1-2.76-2.76A2.76,2.76,0,0,1,215.47,150.34Z" style="fill:#455a64"></path><path d="M223.5,150.34a2.76,2.76,0,1,1-2.76-2.76A2.76,2.76,0,0,1,223.5,150.34Z" style="fill:#455a64"></path><rect x="336.17" y="226.5" width="26.89" height="3.41" style="fill:#e0e0e0"></rect><rect x="336.17" y="237.48" width="126.98" height="57.17" style="fill:#f5f5f5"></rect><polygon points="340.75 289.75 376.66 253.58 407.8 281.08 424.65 266.04 457.05 289.75 340.75 289.75" style="fill:#e0e0e0"></polygon><path d="M409.63,258.87a4.25,4.25,0,1,1-4.25-4.26A4.25,4.25,0,0,1,409.63,258.87Z" style="fill:#e0e0e0"></path><path d="M456.75,289.91a.72.72,0,0,1,0-.23c0-.17,0-.39,0-.67,0-.61,0-1.46-.07-2.57,0-2.27-.08-5.55-.15-9.71-.06-8.35-.16-20.24-.28-34.52l.56.24-115.54,0,.64-.27h0v12.83q0,6.3,0,12.31c0,8,0,15.58-.06,22.54l-.57-.24,83.54.12,23.57.07,6.25,0h2.19a4.44,4.44,0,0,1-.51,0h-1.56l-6.14,0-23.43.06-83.91.13h-.56v-.25c0-7,0-14.53-.07-22.54q0-6,0-12.31c0-2.11,0-4.23,0-6.37v-6.46h0l.66-.29,115.54,0h.56v.24c-.12,14.34-.22,26.29-.29,34.68-.06,4.14-.11,7.4-.14,9.65,0,1.09-.05,1.93-.07,2.53,0,.26,0,.47,0,.64S456.76,289.92,456.75,289.91Z" style="fill:#e0e0e0"></path><path d="M348.65,312a5,5,0,1,1-5-5.05A5,5,0,0,1,348.65,312Z" style="fill:#9F10D1"></path><path d="M431.58,309.29c0,.15-17.66.26-39.44.26s-39.45-.11-39.45-.26,17.66-.26,39.45-.26S431.58,309.15,431.58,309.29Z" style="fill:#9F10D1"></path><path d="M431.58,312.88c0,.14-17.66.26-39.44.26s-39.45-.12-39.45-.26,17.66-.26,39.45-.26S431.58,312.74,431.58,312.88Z" style="fill:#9F10D1"></path><path d="M394.85,317.05a11,11,0,0,1-1.65.1l-4.52.08c-3.82,0-9.09.08-14.91.08s-11.09,0-14.91-.08l-4.51-.08a11,11,0,0,1-1.66-.1,10,10,0,0,1,1.66-.11l4.51-.08c3.82-.05,9.09-.07,14.91-.07s11.09,0,14.91.07l4.52.08A10,10,0,0,1,394.85,317.05Z" style="fill:#9F10D1"></path><circle cx="343.61" cy="331.11" r="5.05" style="fill:#9F10D1"></circle><path d="M431.58,328.41c0,.14-17.66.26-39.44.26s-39.45-.12-39.45-.26,17.66-.26,39.45-.26S431.58,328.26,431.58,328.41Z" style="fill:#9F10D1"></path><path d="M431.58,332c0,.15-17.66.26-39.44.26s-39.45-.11-39.45-.26,17.66-.26,39.45-.26S431.58,331.85,431.58,332Z" style="fill:#9F10D1"></path><path d="M394.85,336.16a9.48,9.48,0,0,1-1.65.1l-4.52.09c-3.82,0-9.09.07-14.91.07s-11.09,0-14.91-.07l-4.51-.09a9.55,9.55,0,0,1-1.66-.1,9.55,9.55,0,0,1,1.66-.1l4.51-.08c3.82-.05,9.09-.08,14.91-.08s11.09,0,14.91.08l4.52.08A9.48,9.48,0,0,1,394.85,336.16Z" style="fill:#9F10D1"></path><rect x="203.86" y="157.25" width="345.61" height="56.76" style="fill:#455a64"></rect><rect x="356.99" y="176.85" width="80.4" height="5.9" style="fill:#fafafa"></rect><path d="M473.53,193.36l-.41,0-1.19,0-4.59.05-16.86.08-55.62.08-55.64-.08-16.86-.08-4.58-.05-1.19,0-.41,0,.41,0,1.19,0,4.58-.05,16.86-.08,55.64-.08,55.62.08,16.86.08,4.59.05,1.19,0Z" style="fill:#fafafa"></path><path d="M439.7,199.54a5.82,5.82,0,0,1-.86.05l-2.48,0-9.11.08-30.05.08-30.06-.08-9.11-.08-2.48,0a5.82,5.82,0,0,1-.86-.05,4.46,4.46,0,0,1,.86,0l2.48-.05,9.11-.09,30.06-.07,30.05.07,9.11.09,2.48.05A4.46,4.46,0,0,1,439.7,199.54Z" style="fill:#fafafa"></path><path d="M286.86,214a29,29,0,1,1-29-29A29,29,0,0,1,286.86,214Z" style="fill:#fafafa"></path><path d="M292.6,277.19c0,.15-14.88.28-33.24.28s-33.23-.13-33.23-.28,14.87-.29,33.23-.29S292.6,277,292.6,277.19Z" style="fill:#263238"></path><path d="M292.6,284.54c0,.15-14.88.28-33.24.28s-33.23-.13-33.23-.28,14.87-.28,33.23-.28S292.6,284.38,292.6,284.54Z" style="fill:#263238"></path><path d="M292.6,291.89c0,.16-14.88.28-33.24.28s-33.23-.12-33.23-.28,14.87-.28,33.23-.28S292.6,291.74,292.6,291.89Z" style="fill:#263238"></path><path d="M264.32,299.4c0,.16-8.63.28-19.28.28s-19.27-.12-19.27-.28,8.63-.28,19.27-.28S264.32,299.25,264.32,299.4Z" style="fill:#263238"></path><rect x="226.13" y="262.18" width="45.8" height="3.35" transform="translate(498.05 527.72) rotate(180)" style="fill:#263238"></rect><path d="M239.73,236.16a28.07,28.07,0,0,0,36.75,0c-1.53-5.24-5.27-11.46-14.36-12.84a11.37,11.37,0,0,0,6.78-10.53c0-6.3-4.73-11.42-10.63-11.45s-10.7,5.06-10.73,11.35a11.36,11.36,0,0,0,6.81,10.63C245.1,224.7,241.29,231,239.73,236.16Z" style="fill:#9F10D1"></path><rect x="226.13" y="310.88" width="25.68" height="3.13" style="fill:#263238"></rect></g><g id="freepik--speech-bubbles--inject-8"><path d="M600.14,154.91a3.12,3.12,0,0,0,.64.08l1.87.13a21.77,21.77,0,0,1,3,.41,16.68,16.68,0,0,1,1.91.36l2.14.59a35.18,35.18,0,0,1,10.15,5,35.91,35.91,0,0,1,10,11.12,38.18,38.18,0,0,1,3.5,8A38.56,38.56,0,0,1,634.9,190a39.75,39.75,0,0,1-.09,5c0,.85-.23,1.69-.34,2.54a17.34,17.34,0,0,1-.48,2.55,36,36,0,0,1-3.86,10,35.52,35.52,0,0,1-16.77,15.24A32.66,32.66,0,0,1,601.53,228a31.94,31.94,0,0,1-12.35-1.78l-1.21-.44-.16-.06-.15.07-17.37,8.82.52.44c1.85-5.76,3.65-11.34,5.38-16.69l.06-.21-.15-.15A37.14,37.14,0,0,1,567,202.79a37.9,37.9,0,0,1-1.32-16.14,37.2,37.2,0,0,1,12.4-23.29,33.93,33.93,0,0,1,15.75-7.7l2.7-.46,2-.14,1.22-.09.42-.06h-.42l-1.23,0-2,.08-2.73.41a35.84,35.84,0,0,0-7.3,2.19,38,38,0,0,0-8.68,5.4,37.21,37.21,0,0,0-8,9.68,37.68,37.68,0,0,0-4.7,13.87A38.54,38.54,0,0,0,566.34,203a37.78,37.78,0,0,0,9.26,15.47l-.09-.36-5.4,16.68-.28.85.79-.4L588,226.42h-.3l1.23.46a32.83,32.83,0,0,0,12.63,1.81A33.39,33.39,0,0,0,613.65,226a36.1,36.1,0,0,0,17.08-15.58,36.5,36.5,0,0,0,3.9-10.19,17.86,17.86,0,0,0,.48-2.59c.11-.87.29-1.72.33-2.58a40.17,40.17,0,0,0-1.52-14.55,38,38,0,0,0-3.6-8.1,36.15,36.15,0,0,0-10.2-11.2,35.15,35.15,0,0,0-10.32-5l-2.16-.56a16.61,16.61,0,0,0-1.93-.33,19.62,19.62,0,0,0-3.05-.34l-1.88-.06Z" style="fill:#263238"></path><path d="M592.28,187.07h2.55l5.55-7.74v-5.08s3.94-.24,3.47,6.41,0,5,0,5,8.36,0,9.05.76c.51.53.73,8.83.82,13.33a4.86,4.86,0,0,1-3.45,4.9,3.5,3.5,0,0,1-.9.13c-2.08,0-12.73-1.7-12.73-1.7h-4.4Z" style="fill:#9F10D1"></path><polygon points="585 185.68 586.56 203.09 590.92 203.09 590.92 186.03 585 185.68" style="fill:#9F10D1"></polygon><path d="M634.83,250.47H480.89a6,6,0,0,0-6,6v48.81a6,6,0,0,0,6,6h3.51V329l17.46-17.74h133a6,6,0,0,0,6-6V256.48A6,6,0,0,0,634.83,250.47Z" style="fill:#9F10D1"></path><path d="M594.13,289.36c-.08-2.77,0-6.88.08-10.55l0,0A11.54,11.54,0,0,1,597,266.35c5.76-5.93,9.62-4.61,11.84-4.57s12.48,2.49,15.38,14.75a21,21,0,0,1,.32,2.38h0c0,.61.11,1.18.16,1.6h0a12.84,12.84,0,0,0,6.7,10.6,25.4,25.4,0,1,0-36.17,11.62A36.07,36.07,0,0,1,594.13,289.36Z" style="fill:#fafafa"></path><path d="M594.15,290c0-.2,0-.4,0-.61a36.07,36.07,0,0,0,1.07,13.38,25.12,25.12,0,0,0,5.31,2.38c-.08-3.54-.37-8.57-.37-8.57S594.4,295.83,594.15,290Z" style="fill:#263238"></path><path d="M615.47,279.2s-9.39-1.08-10.9-9.87l-.06.05c-.57,1.33-1.59,4.18-1,6.5L595.15,278l-.94.86c-.1,3.67-.16,7.78-.08,10.55,0,.21,0,.41,0,.61.25,5.86,6,6.58,6,6.58a14,14,0,0,0,7.6-2.49s-1.78,4.27-7.5,3.93l-.1-1.44s.29,5,.37,8.57a25.56,25.56,0,0,0,7.62,1.16,25.83,25.83,0,0,0,6.44-.82Zm-11.55,1.42a.75.75,0,0,1,.74-.74.75.75,0,1,1-.74.74Zm-.17-1.27a2,2,0,0,1,1.14-.44,1.91,1.91,0,0,1,1.16.34c.26.19.35.37.31.41s-.67-.3-1.45-.26-1.34.49-1.43.4S603.52,279.56,603.75,279.35ZM595,279.2a2,2,0,0,1,1.14-.44,1.84,1.84,0,0,1,1.16.34c.26.19.35.37.31.41s-.67-.3-1.45-.26-1.34.49-1.43.39S594.8,279.41,595,279.2Zm.42,1.27a.74.74,0,0,1,.75-.73.72.72,0,0,1,.71.76.73.73,0,1,1-1.46,0Zm3.43,6.1a.47.47,0,0,1-.33-.3,1.28,1.28,0,0,1,.09-.85l.54-1.67a29.42,29.42,0,0,1,1.59-4.22,29.9,29.9,0,0,1-1.27,4.33l-.57,1.67a1.18,1.18,0,0,0-.12.64c0,.14.22.18.43.19a4.83,4.83,0,0,1,1.28.2,4.93,4.93,0,0,1-1.3.05A1.08,1.08,0,0,1,598.89,286.57Zm3,2.88a2.15,2.15,0,0,1-2.59-.81c1.6,0,4.63-1.8,3.82-1.27A1.7,1.7,0,0,1,601.88,289.45Z" style="fill:#e5baab"></path><path d="M596.92,280.5a.72.72,0,0,0-.71-.76.75.75,0,1,0,.71.76Z" style="fill:#263238"></path><path d="M596.2,279.25c.78,0,1.37.37,1.45.26s0-.22-.31-.41a1.84,1.84,0,0,0-1.16-.34,2,2,0,0,0-1.14.44c-.24.21-.32.4-.27.44S595.41,279.28,596.2,279.25Z" style="fill:#263238"></path><path d="M605.38,280.64a.74.74,0,0,0-.72-.76.75.75,0,0,0,0,1.5A.74.74,0,0,0,605.38,280.64Z" style="fill:#263238"></path><path d="M604.91,279.4c.78,0,1.37.37,1.45.26s-.05-.22-.31-.41a1.91,1.91,0,0,0-1.16-.34,2,2,0,0,0-1.14.44c-.23.21-.31.4-.27.45S604.12,279.43,604.91,279.4Z" style="fill:#263238"></path><path d="M600.53,286.56a4.83,4.83,0,0,0-1.28-.2c-.21,0-.4-.05-.43-.19a1.18,1.18,0,0,1,.12-.64l.57-1.67a29.9,29.9,0,0,0,1.27-4.33,29.42,29.42,0,0,0-1.59,4.22l-.54,1.67a1.28,1.28,0,0,0-.09.85.47.47,0,0,0,.33.3,1.08,1.08,0,0,0,.34,0A4.93,4.93,0,0,0,600.53,286.56Z" style="fill:#263238"></path><path d="M599.29,288.64a2.15,2.15,0,0,0,2.59.81,1.7,1.7,0,0,0,1.23-2.08C603.92,286.84,600.89,288.67,599.29,288.64Z" style="fill:#fff"></path><path d="M607.74,294.06a14,14,0,0,1-7.6,2.49l.1,1.44C606,298.33,607.74,294.06,607.74,294.06Z" style="fill:#d78776"></path><path d="M624.67,280.52h0c0-.42-.11-1-.16-1.6h0a21,21,0,0,0-.32-2.38c-2.9-12.26-13.31-14.72-15.38-14.75s-6.08-1.36-11.84,4.57a11.54,11.54,0,0,0-2.77,12.48l0,0,.94-.86,8.39-2.07c-.62-2.32.4-5.17,1-6.5l.06-.05c1.51,8.79,10.9,9.87,10.9,9.87l-.9,26.26c.35-.1.7-.19,1-.3a25.45,25.45,0,0,0,15.76-14A12.84,12.84,0,0,1,624.67,280.52Z" style="fill:#263238"></path><rect x="493.67" y="268.37" width="79.82" height="4.4" style="fill:#fafafa"></rect><rect x="493.67" y="279.69" width="79.82" height="4.4" style="fill:#fafafa"></rect><rect x="493.67" y="290.69" width="39.56" height="4.4" style="fill:#fafafa"></rect></g></svg>