<svg xmlns="http://www.w3.org/2000/svg" viewBox="0 0 500 500"><g id="freepik--Floor--inject-3"><ellipse id="freepik--floor--inject-3" cx="250" cy="334.33" rx="243.61" ry="145.8" style="fill:#f5f5f5"></ellipse></g><g id="freepik--gears-2--inject-3"><path id="freepik--Gear--inject-3" d="M159.76,93.8h0a19.68,19.68,0,0,1-3.26,0,20.06,20.06,0,0,1-3.21-.5,1,1,0,0,1-.78-1.09l.19-2.72a15.89,15.89,0,0,1-3.95-2l-2.05,1.77a1,1,0,0,1-1.35,0,19.89,19.89,0,0,1-4.24-4.9,1,1,0,0,1,.22-1.33l2.06-1.78a16,16,0,0,1-1.39-4.2l-2.71-.2a1,1,0,0,1-1-.93,19.27,19.27,0,0,1,.47-6.48,1,1,0,0,1,1.09-.78l2.71.2a16.28,16.28,0,0,1,2-4l-1.78-2.06a1.06,1.06,0,0,1,0-1.35,19.71,19.71,0,0,1,4.92-4.23,1,1,0,0,1,1.32.22l1.78,2a15.57,15.57,0,0,1,4.2-1.38l.2-2.72a1,1,0,0,1,.93-1,19.57,19.57,0,0,1,3.25,0,20,20,0,0,1,3.22.5,1,1,0,0,1,.78,1.09l-.2,2.72a16.13,16.13,0,0,1,4,2l2-1.77a1.06,1.06,0,0,1,1.35,0,19.76,19.76,0,0,1,4.24,4.91,1,1,0,0,1-.22,1.32L172.48,67a16.19,16.19,0,0,1,1.39,4.2l2.71.2a1,1,0,0,1,1,.94,19.54,19.54,0,0,1,0,3.25,20.79,20.79,0,0,1-.5,3.21,1,1,0,0,1-1.09.79h0l-2.71-.2a16.28,16.28,0,0,1-2,4l1.77,2.06a1,1,0,0,1,0,1.34A19.53,19.53,0,0,1,168.16,91a1,1,0,0,1-1.32-.21l-1.78-2.06a16.05,16.05,0,0,1-4.2,1.38l-.2,2.72A1,1,0,0,1,159.76,93.8Zm-11.13-7.37a.45.45,0,0,1,.35.09,15.11,15.11,0,0,0,4.36,2.18.51.51,0,0,1,.35.51l-.23,3.1a14.82,14.82,0,0,0,3.09.54,19.89,19.89,0,0,0,3.09,0l.27-3.15a.48.48,0,0,1,.41-.45A15.17,15.17,0,0,0,165,87.69a.48.48,0,0,1,.6.12l2,2.34a17.27,17.27,0,0,0,4.73-4l-2-2.42a.48.48,0,0,1,0-.61,15.21,15.21,0,0,0,2.19-4.35.51.51,0,0,1,.51-.35l3.09.23a.06.06,0,0,0,.06,0,18.87,18.87,0,0,0,.47-3.06,18.6,18.6,0,0,0,0-3.08l-3.15-.28a.49.49,0,0,1-.45-.41,15.16,15.16,0,0,0-1.53-4.64.48.48,0,0,1,.12-.6l2.35-2a17.63,17.63,0,0,0-4-4.73l-2.42,2a.5.5,0,0,1-.61,0,14.89,14.89,0,0,0-4.36-2.19.51.51,0,0,1-.35-.51l.23-3.1a14.18,14.18,0,0,0-3.09-.53,18.73,18.73,0,0,0-3.09,0l-.27,3.16a.5.5,0,0,1-.41.45,15,15,0,0,0-4.64,1.52.49.49,0,0,1-.6-.11l-2-2.35a17.46,17.46,0,0,0-4.74,4l2,2.41a.5.5,0,0,1,0,.61,15.22,15.22,0,0,0-2.2,4.37.5.5,0,0,1-.51.34l-3.09-.23a14.63,14.63,0,0,0-.54,3.09,17.83,17.83,0,0,0,0,3.1l3.14.27a.5.5,0,0,1,.46.41,14.84,14.84,0,0,0,1.53,4.63.49.49,0,0,1-.11.6l-2.36,2a17.63,17.63,0,0,0,4,4.73l2.42-2A.5.5,0,0,1,148.63,86.43Zm10.63-2.85a9.53,9.53,0,0,1-9.9-13.6A9,9,0,0,1,155,65.09a9.56,9.56,0,0,1,11.46,13.28,9,9,0,0,1-5.66,4.88h0A10.84,10.84,0,0,1,159.26,83.58ZM156.7,65.75a8.83,8.83,0,0,0-1.41.29,8,8,0,0,0-5,4.34,8.58,8.58,0,0,0,10.29,11.93h0a8,8,0,0,0,5-4.35,8.66,8.66,0,0,0-1.22-9.35A8.55,8.55,0,0,0,156.7,65.75Z" style="fill:#e0e0e0"></path><path id="freepik--gear--inject-3" d="M460.58,84.41h0a19.57,19.57,0,0,1-3.25,0,20,20,0,0,1-3.22-.5,1,1,0,0,1-.78-1.09l.2-2.72a15.79,15.79,0,0,1-4-2l-2.05,1.77a1,1,0,0,1-1.35,0A19.89,19.89,0,0,1,441.9,75a1,1,0,0,1,.22-1.33l2.06-1.78a16.32,16.32,0,0,1-1.39-4.2l-2.71-.2a1,1,0,0,1-1-.93,19.27,19.27,0,0,1,.47-6.48,1,1,0,0,1,1.09-.78l2.71.2a16.28,16.28,0,0,1,2-3.95l-1.78-2.06a1,1,0,0,1,0-1.35A19.49,19.49,0,0,1,448.5,48a1,1,0,0,1,1.32.22l1.78,2a15.57,15.57,0,0,1,4.2-1.38l.2-2.72a1,1,0,0,1,.93-1,19.68,19.68,0,0,1,3.26,0,19.88,19.88,0,0,1,3.21.5,1,1,0,0,1,.78,1.09l-.2,2.72a16,16,0,0,1,4,2L470,49.65a1.06,1.06,0,0,1,1.35,0,19.76,19.76,0,0,1,4.24,4.91,1,1,0,0,1-.22,1.32l-2.06,1.78a16.19,16.19,0,0,1,1.39,4.2l2.71.2a1,1,0,0,1,1,.94,19.54,19.54,0,0,1,0,3.25,20.79,20.79,0,0,1-.5,3.21,1,1,0,0,1-1.09.79h0l-2.71-.2a16.1,16.1,0,0,1-2,4L473.87,76a1,1,0,0,1,0,1.34,19.66,19.66,0,0,1-4.9,4.24,1.05,1.05,0,0,1-1.33-.21l-1.77-2.06a16.24,16.24,0,0,1-4.21,1.38l-.2,2.72A1,1,0,0,1,460.58,84.41ZM449.45,77a.45.45,0,0,1,.35.09,15.11,15.11,0,0,0,4.36,2.18.51.51,0,0,1,.35.51l-.23,3.1a14.82,14.82,0,0,0,3.09.54,19.89,19.89,0,0,0,3.09,0l.27-3.15a.49.49,0,0,1,.41-.45,15.17,15.17,0,0,0,4.64-1.53.48.48,0,0,1,.6.12l2,2.34a17.2,17.2,0,0,0,4.72-4l-2-2.42a.48.48,0,0,1,0-.61,15.21,15.21,0,0,0,2.19-4.35.51.51,0,0,1,.51-.35l3.09.23a.06.06,0,0,0,.06,0,20.07,20.07,0,0,0,.48-3.06,18.59,18.59,0,0,0,0-3.08l-3.14-.28a.49.49,0,0,1-.46-.41,15.16,15.16,0,0,0-1.53-4.64.49.49,0,0,1,.12-.6l2.35-2a17.63,17.63,0,0,0-4-4.73l-2.42,2a.5.5,0,0,1-.61,0,14.89,14.89,0,0,0-4.36-2.19.51.51,0,0,1-.35-.51l.23-3.1a14.18,14.18,0,0,0-3.09-.53,18.73,18.73,0,0,0-3.09,0l-.27,3.16a.5.5,0,0,1-.41.45,15,15,0,0,0-4.64,1.52.49.49,0,0,1-.6-.11l-2-2.35a17.46,17.46,0,0,0-4.74,4l2,2.41a.5.5,0,0,1,0,.61,15.22,15.22,0,0,0-2.2,4.37.5.5,0,0,1-.51.34l-3.09-.23a14.63,14.63,0,0,0-.54,3.09,17.83,17.83,0,0,0,0,3.1l3.15.27a.5.5,0,0,1,.45.41,15.11,15.11,0,0,0,1.53,4.63.49.49,0,0,1-.11.6l-2.36,2a17.63,17.63,0,0,0,4,4.73l2.42-2A.54.54,0,0,1,449.45,77Zm10.63-2.85a9.53,9.53,0,0,1-9.9-13.6,9,9,0,0,1,5.66-4.89A9.56,9.56,0,0,1,467.3,69a9,9,0,0,1-5.66,4.88h0A10.84,10.84,0,0,1,460.08,74.19Zm-2.55-17.83a9,9,0,0,0-1.42.29,8,8,0,0,0-5,4.34,8.58,8.58,0,0,0,10.29,11.93h0a8,8,0,0,0,5-4.35,8.66,8.66,0,0,0-1.22-9.35A8.55,8.55,0,0,0,457.53,56.36Z" style="fill:#e0e0e0"></path><path id="freepik--gear--inject-3" d="M196.23,45.27a7.36,7.36,0,0,0-4.61,4,7.74,7.74,0,0,0,7,11.11,9.24,9.24,0,0,0,1-.07,7.83,7.83,0,0,0,1.26-.26,7.3,7.3,0,0,0,4.6-4,7.76,7.76,0,0,0-9.3-10.79Zm8.44,10.39a6.38,6.38,0,0,1-4,3.45,6.81,6.81,0,0,1-8.18-9.47A6.47,6.47,0,0,1,197.61,46a7.11,7.11,0,0,1,.92-.06,6.84,6.84,0,0,1,5.17,2.33A6.91,6.91,0,0,1,204.67,55.66Zm9.76-4.47a.9.9,0,0,0-.84-.82l-2.12-.16a12.91,12.91,0,0,0-1.09-3.28L212,45.54a.93.93,0,0,0,.18-1.17,15.83,15.83,0,0,0-3.42-4,.94.94,0,0,0-1.19,0L206,41.81a13,13,0,0,0-3.09-1.55l.16-2.12a.92.92,0,0,0-.7-1,15.71,15.71,0,0,0-2.59-.4,15.38,15.38,0,0,0-2.63,0,.9.9,0,0,0-.83.84l-.15,2.13a12.63,12.63,0,0,0-3.28,1.08l-1.39-1.61a.92.92,0,0,0-1.17-.19,16,16,0,0,0-4,3.42.92.92,0,0,0,0,1.19l1.39,1.6a13.39,13.39,0,0,0-1.56,3.09l-2.11-.15a.91.91,0,0,0-1,.69,15.18,15.18,0,0,0-.41,2.59,15.53,15.53,0,0,0,0,2.64.92.92,0,0,0,.85.82l2.12.16a12.71,12.71,0,0,0,1.09,3.27l-1.62,1.39a.93.93,0,0,0-.18,1.17,16.06,16.06,0,0,0,3.42,4,.92.92,0,0,0,1.19,0l1.6-1.38a13.76,13.76,0,0,0,3.09,1.55l-.16,2.12a.92.92,0,0,0,.7,1,15.71,15.71,0,0,0,2.59.4c.4,0,.8,0,1.2,0s1,0,1.44-.07h0a.92.92,0,0,0,.79-.85l.16-2.12a12.89,12.89,0,0,0,3.28-1.08l1.39,1.61a.92.92,0,0,0,1.17.19,16,16,0,0,0,4-3.43.92.92,0,0,0,0-1.19L209.42,60A13.28,13.28,0,0,0,211,57l2.12.15a.9.9,0,0,0,1-.69,16.7,16.7,0,0,0,.4-2.6A15.38,15.38,0,0,0,214.43,51.19Zm-.93,2.56a14.35,14.35,0,0,1-.37,2.41L210.67,56a.48.48,0,0,0-.49.33,12,12,0,0,1-1.75,3.48.47.47,0,0,0,0,.59L210,62.27a13.63,13.63,0,0,1-3.67,3.12l-1.59-1.83a.46.46,0,0,0-.58-.11,12.2,12.2,0,0,1-3.7,1.22.46.46,0,0,0-.4.43l-.21,2.47a14.91,14.91,0,0,1-2.41,0,11.43,11.43,0,0,1-2.4-.41l.18-2.43a.46.46,0,0,0-.34-.48,12.24,12.24,0,0,1-3.48-1.75.52.52,0,0,0-.34-.09.47.47,0,0,0-.25.11L189,64.12a13.88,13.88,0,0,1-3.12-3.68l1.84-1.59a.47.47,0,0,0,.11-.58,12,12,0,0,1-1.23-3.7.46.46,0,0,0-.43-.39L183.67,54a14.92,14.92,0,0,1,0-2.41,11.9,11.9,0,0,1,.41-2.4l2.42.18h0A.46.46,0,0,0,187,49a12.46,12.46,0,0,1,1.76-3.49.47.47,0,0,0,0-.59L187.11,43a14.2,14.2,0,0,1,3.68-3.12l1.59,1.84a.47.47,0,0,0,.58.11,11.93,11.93,0,0,1,3.7-1.22.47.47,0,0,0,.4-.43l.21-2.47a14.9,14.9,0,0,1,2.41,0,11.45,11.45,0,0,1,2.4.4l-.18,2.43a.47.47,0,0,0,.34.49,12.24,12.24,0,0,1,3.48,1.75.48.48,0,0,0,.59,0l1.89-1.59a14,14,0,0,1,3.12,3.67l-1.84,1.59a.47.47,0,0,0-.11.58,12,12,0,0,1,1.22,3.7.48.48,0,0,0,.44.4l2.46.22A14.77,14.77,0,0,1,213.5,53.75Z" style="fill:#e0e0e0"></path><path id="freepik--gear--inject-3" d="M418.6,44.76a7.35,7.35,0,0,0-4.61,4,7.84,7.84,0,0,0,1.12,8.45A7.74,7.74,0,0,0,421,59.84a8.89,8.89,0,0,0,1-.06,11,11,0,0,0,1.27-.26,7.32,7.32,0,0,0,4.6-4,7.76,7.76,0,0,0-9.3-10.78ZM427,55.15a6.38,6.38,0,0,1-4,3.45,6.81,6.81,0,0,1-8.18-9.47,6.36,6.36,0,0,1,4-3.45,7.46,7.46,0,0,1,1.12-.24,7.09,7.09,0,0,1,.92,0,6.8,6.8,0,0,1,5.17,2.33A6.91,6.91,0,0,1,427,55.15Zm9.76-4.47a.91.91,0,0,0-.84-.83l-2.12-.15a13.17,13.17,0,0,0-1.09-3.28L434.37,45a.93.93,0,0,0,.18-1.17,15.83,15.83,0,0,0-3.42-4,.94.94,0,0,0-1.19,0l-1.6,1.39a12.61,12.61,0,0,0-3.09-1.55l.16-2.12a.91.91,0,0,0-.7-1,15.72,15.72,0,0,0-2.59-.41,16.46,16.46,0,0,0-2.63,0,.92.92,0,0,0-.83.85l-.15,2.12a13,13,0,0,0-3.28,1.08l-1.39-1.6a.92.92,0,0,0-1.17-.19,15.82,15.82,0,0,0-4,3.42.92.92,0,0,0,0,1.18l1.39,1.61a13.39,13.39,0,0,0-1.56,3.09l-2.11-.16a.92.92,0,0,0-1,.69,16.09,16.09,0,0,0-.39,5.24.92.92,0,0,0,.85.82l2.12.16a12.71,12.71,0,0,0,1.09,3.27l-1.62,1.39a.93.93,0,0,0-.18,1.17,16.06,16.06,0,0,0,3.42,4,.94.94,0,0,0,1.19,0l1.6-1.39a13,13,0,0,0,3.09,1.55l-.16,2.13a.9.9,0,0,0,.7,1,15.72,15.72,0,0,0,2.59.41c.4,0,.8,0,1.2,0s1,0,1.44-.06h0a.9.9,0,0,0,.79-.84l.16-2.12A13.29,13.29,0,0,0,426.67,64l1.39,1.6a.91.91,0,0,0,1.17.19,15.62,15.62,0,0,0,4-3.43.91.91,0,0,0,0-1.18l-1.39-1.6a13.35,13.35,0,0,0,1.55-3.09l2.12.16a.91.91,0,0,0,1-.7,16.51,16.51,0,0,0,.4-2.6A15.26,15.26,0,0,0,436.8,50.68Zm-.93,2.55a14.46,14.46,0,0,1-.37,2.42L433,55.47a.48.48,0,0,0-.49.33,12,12,0,0,1-1.75,3.48.47.47,0,0,0,0,.59l1.58,1.89a14,14,0,0,1-3.67,3.12L427.15,63a.49.49,0,0,0-.58-.11,12.2,12.2,0,0,1-3.7,1.22.48.48,0,0,0-.4.44l-.21,2.47a14.91,14.91,0,0,1-2.41,0,12.12,12.12,0,0,1-2.4-.41l.18-2.43a.48.48,0,0,0-.34-.49A12,12,0,0,1,413.81,62a.42.42,0,0,0-.34-.09.47.47,0,0,0-.25.11l-1.89,1.59a14,14,0,0,1-3.12-3.68l1.84-1.59a.48.48,0,0,0,.11-.58,12.13,12.13,0,0,1-1.23-3.7.47.47,0,0,0-.43-.4L406,53.45A14.92,14.92,0,0,1,406,51a11.9,11.9,0,0,1,.41-2.4l2.42.17h0a.47.47,0,0,0,.45-.34A12.53,12.53,0,0,1,411.1,45a.47.47,0,0,0,0-.59l-1.59-1.89a14.2,14.2,0,0,1,3.68-3.12l1.59,1.84a.49.49,0,0,0,.58.11,11.93,11.93,0,0,1,3.7-1.22.47.47,0,0,0,.4-.44l.21-2.46a14.89,14.89,0,0,1,2.41,0,12.12,12.12,0,0,1,2.4.41l-.18,2.43a.48.48,0,0,0,.34.49,11.74,11.74,0,0,1,3.48,1.75.47.47,0,0,0,.59,0l1.89-1.59a14.2,14.2,0,0,1,3.12,3.68l-1.84,1.59a.47.47,0,0,0-.11.58,11.93,11.93,0,0,1,1.22,3.7.49.49,0,0,0,.44.4l2.46.21A14.78,14.78,0,0,1,435.87,53.23Z" style="fill:#e0e0e0"></path><path id="freepik--gear--inject-3" d="M46.63,167.65a6.38,6.38,0,0,0-4,3.48,6.85,6.85,0,0,0,1,7.39,6.85,6.85,0,0,0,6.06,2.28,7.06,7.06,0,0,0,1.11-.23,6.35,6.35,0,0,0,4-3.48,6.79,6.79,0,0,0-8.15-9.44Zm7.39,9.1a5.54,5.54,0,0,1-3.5,3,6,6,0,0,1-7.16-8.3,5.59,5.59,0,0,1,3.5-3,7.16,7.16,0,0,1,1-.21,7.31,7.31,0,0,1,.8-.05A5.95,5.95,0,0,1,54,176.75Zm8.56-3.92a.79.79,0,0,0-.74-.72L60,172A10.88,10.88,0,0,0,59,169.1l1.42-1.22a.81.81,0,0,0,.16-1,14.29,14.29,0,0,0-3-3.48.82.82,0,0,0-1,0l-1.41,1.21a11.6,11.6,0,0,0-2.7-1.36l.14-1.86a.8.8,0,0,0-.61-.83,14.08,14.08,0,0,0-2.28-.36,13.57,13.57,0,0,0-2.3,0,.79.79,0,0,0-.72.74l-.14,1.86a10.88,10.88,0,0,0-2.87,1l-1.22-1.41a.79.79,0,0,0-1-.16,13.63,13.63,0,0,0-3.48,3,.81.81,0,0,0,0,1l1.21,1.41a11.6,11.6,0,0,0-1.36,2.7L36,170.21a.78.78,0,0,0-.84.6,13.53,13.53,0,0,0-.36,2.28,13.72,13.72,0,0,0,0,2.31.81.81,0,0,0,.74.72l1.86.13a11.52,11.52,0,0,0,1,2.87l-1.41,1.22a.81.81,0,0,0-.17,1,13.89,13.89,0,0,0,3,3.47.8.8,0,0,0,1,0l1.41-1.22a11.59,11.59,0,0,0,2.7,1.36l-.13,1.86a.79.79,0,0,0,.6.84,13.21,13.21,0,0,0,2.28.35c.35,0,.7,0,1,0s.84,0,1.26-.06h0a.8.8,0,0,0,.69-.74l.14-1.86a11.57,11.57,0,0,0,2.88-.94l1.21,1.4a.8.8,0,0,0,1,.17,13.71,13.71,0,0,0,3.48-3,.79.79,0,0,0,0-1l-1.21-1.41a11.22,11.22,0,0,0,1.36-2.7l1.85.14a.8.8,0,0,0,.84-.61,15,15,0,0,0,.36-2.28A13.56,13.56,0,0,0,62.58,172.83Zm-.81,2.24a12.85,12.85,0,0,1-.33,2.11L59.29,177a.4.4,0,0,0-.43.29,10.5,10.5,0,0,1-1.54,3,.44.44,0,0,0,0,.52l1.4,1.66a12.16,12.16,0,0,1-3.23,2.73l-1.39-1.6a.4.4,0,0,0-.5-.1,11,11,0,0,1-3.25,1.07A.42.42,0,0,0,50,185l-.18,2.16a13.5,13.5,0,0,1-2.11,0,10.31,10.31,0,0,1-2.11-.36l.16-2.13a.41.41,0,0,0-.29-.42,10.78,10.78,0,0,1-3.05-1.53.42.42,0,0,0-.3-.08.37.37,0,0,0-.22.1l-1.66,1.39a12.5,12.5,0,0,1-2.73-3.22l1.61-1.4a.42.42,0,0,0,.1-.51,10.76,10.76,0,0,1-1.08-3.24.4.4,0,0,0-.38-.34l-2.15-.19a12.39,12.39,0,0,1,0-2.11A10.55,10.55,0,0,1,36,171l2.13.16h0a.41.41,0,0,0,.39-.29,10.87,10.87,0,0,1,1.54-3.06.41.41,0,0,0,0-.51l-1.4-1.66A12.35,12.35,0,0,1,41.87,163l1.39,1.61a.43.43,0,0,0,.51.1A10.13,10.13,0,0,1,47,163.59a.41.41,0,0,0,.35-.38l.19-2.17a13.37,13.37,0,0,1,2.1,0,10.78,10.78,0,0,1,2.11.36l-.16,2.13a.43.43,0,0,0,.3.43A10.53,10.53,0,0,1,55,165.48a.42.42,0,0,0,.51,0l1.66-1.4a12.62,12.62,0,0,1,2.74,3.23l-1.62,1.39a.41.41,0,0,0-.1.5,10.55,10.55,0,0,1,1.08,3.25.41.41,0,0,0,.38.35l2.16.19A13.37,13.37,0,0,1,61.77,175.07Z" style="fill:#e0e0e0"></path><path id="freepik--gear--inject-3" d="M31.51,202.15a7.37,7.37,0,0,0-4.6,4A7.83,7.83,0,0,0,28,214.57a7.74,7.74,0,0,0,5.89,2.67,9.06,9.06,0,0,0,1-.07,8.18,8.18,0,0,0,1.27-.26,7.35,7.35,0,0,0,4.6-4,7.77,7.77,0,0,0-9.31-10.79ZM40,212.54A6.34,6.34,0,0,1,36,216a6.81,6.81,0,0,1-8.18-9.47,6.34,6.34,0,0,1,4-3.45,7.55,7.55,0,0,1,1.13-.23,7,7,0,0,1,.91-.06A6.78,6.78,0,0,1,40,212.54Zm9.77-4.47a.91.91,0,0,0-.85-.82l-2.11-.16a13.31,13.31,0,0,0-1.09-3.28l1.61-1.39a.92.92,0,0,0,.19-1.17,16.05,16.05,0,0,0-3.43-4,.91.91,0,0,0-1.18,0l-1.61,1.38a13.16,13.16,0,0,0-3.09-1.55l.16-2.12a.92.92,0,0,0-.69-1,15.83,15.83,0,0,0-2.6-.4,15.26,15.26,0,0,0-2.62,0,.89.89,0,0,0-.83.84l-.16,2.13a12.88,12.88,0,0,0-3.28,1.08l-1.38-1.61a.92.92,0,0,0-1.17-.19,16.24,16.24,0,0,0-4,3.42.94.94,0,0,0,0,1.19l1.39,1.6a13.35,13.35,0,0,0-1.55,3.09l-2.12-.15a.91.91,0,0,0-1,.69,17.45,17.45,0,0,0-.41,2.59A16.64,16.64,0,0,0,18,211a.91.91,0,0,0,.85.82L21,212a13.52,13.52,0,0,0,1.09,3.27l-1.61,1.4a.92.92,0,0,0-.19,1.17,15.85,15.85,0,0,0,3.43,4,.91.91,0,0,0,1.18,0l1.61-1.38a13.28,13.28,0,0,0,3.08,1.55l-.15,2.12a.92.92,0,0,0,.69,1,15.83,15.83,0,0,0,2.6.4c.4,0,.8.05,1.2.05a13.88,13.88,0,0,0,1.44-.07h0a.92.92,0,0,0,.79-.84l.16-2.13a13,13,0,0,0,3.28-1.08L41,223a.92.92,0,0,0,1.17.19,15.89,15.89,0,0,0,4-3.43.91.91,0,0,0,0-1.18l-1.38-1.61a13.28,13.28,0,0,0,1.55-3.08l2.12.15a.9.9,0,0,0,.95-.69,15.61,15.61,0,0,0,.41-2.6A15.38,15.38,0,0,0,49.72,208.07Zm-.93,2.56a16.73,16.73,0,0,1-.37,2.41L46,212.86a.47.47,0,0,0-.49.33,12.24,12.24,0,0,1-1.75,3.48.48.48,0,0,0,0,.59l1.59,1.89a14.05,14.05,0,0,1-3.68,3.13l-1.58-1.84a.48.48,0,0,0-.58-.11,12.26,12.26,0,0,1-3.71,1.22.47.47,0,0,0-.4.43l-.21,2.47a14.78,14.78,0,0,1-2.4,0,11.64,11.64,0,0,1-2.41-.41l.18-2.43a.46.46,0,0,0-.33-.48,12.24,12.24,0,0,1-3.48-1.75.53.53,0,0,0-.34-.09.44.44,0,0,0-.25.11L24.24,221a13.88,13.88,0,0,1-3.12-3.68L23,215.73a.49.49,0,0,0,.11-.58,12.07,12.07,0,0,1-1.23-3.69.46.46,0,0,0-.43-.4L19,210.84a16.16,16.16,0,0,1,0-2.41,11.89,11.89,0,0,1,.42-2.4l2.42.18h0a.47.47,0,0,0,.45-.33A12.17,12.17,0,0,1,24,202.39a.48.48,0,0,0,0-.59l-1.6-1.89a14.25,14.25,0,0,1,3.69-3.12l1.58,1.84a.48.48,0,0,0,.58.11,12,12,0,0,1,3.7-1.22.48.48,0,0,0,.41-.43l.21-2.47a14.78,14.78,0,0,1,2.4,0,11.66,11.66,0,0,1,2.41.4l-.18,2.43a.46.46,0,0,0,.33.49A12,12,0,0,1,41,199.68a.48.48,0,0,0,.59,0l1.9-1.59a13.88,13.88,0,0,1,3.12,3.68l-1.84,1.58a.47.47,0,0,0-.12.58,12.31,12.31,0,0,1,1.23,3.7.47.47,0,0,0,.43.4l2.47.22A14.77,14.77,0,0,1,48.79,210.63Z" style="fill:#e0e0e0"></path></g><g id="freepik--Device--inject-3"><g id="freepik--Laptop--inject-3"><path d="M83.91,359.52c0,3.56,2.67,8,6,9.88L229.2,449.85a13.13,13.13,0,0,0,11.9,0L458.45,324.37c3.28-1.9,5.95-6.33,5.95-9.89s-2.67-8-5.95-9.88L319.12,224.15a13.16,13.16,0,0,0-11.91,0L89.87,349.63C86.58,351.53,83.91,356,83.91,359.52Z" style="fill:#37474f"></path><path d="M89.87,356.51,229.2,437a13.13,13.13,0,0,0,11.9,0L458.45,311.47c3.28-1.9,3.28-5,0-6.87L319.12,224.15a13.16,13.16,0,0,0-11.91,0L89.87,349.63C86.58,351.53,86.58,354.61,89.87,356.51Z" style="fill:#455a64"></path><path d="M235.15,438.39v12.88a12.12,12.12,0,0,1-6-1.42L89.86,369.4c-3.28-1.89-6-6.32-6-9.88,0-3.34,2.35-7.44,5.35-9.5-2.67,1.91-2.46,4.72.6,6.49L229.2,437A12.12,12.12,0,0,0,235.15,438.39Z" style="fill:#263238"></path><path d="M309.57,35.56c-2.79-2.22-7.57-2.2-10.86-.3L81.37,160.74a13.16,13.16,0,0,0-6,10.31V341.26h0c0,3.8,2.36,8,5.69,9.25,3.51,1.35,5.5,1,8.78-.91h0L307.21,224.15a13.14,13.14,0,0,0,6-10.31V43.63C313.16,39.83,312.48,37.88,309.57,35.56Z" style="fill:#37474f"></path><path d="M313.17,43.62c0-3.79-2.67-5.32-6-3.43L89.86,165.68a12.11,12.11,0,0,0-4.2,4.45l-8.5-4.94h0a12.24,12.24,0,0,1,4.22-4.45L298.71,35.26c3.28-1.9,8.08-1.94,10.85.3C312.49,37.92,313.17,39.83,313.17,43.62Z" style="fill:#455a64"></path><path d="M83.94,346.18l0-170.2a12.13,12.13,0,0,1,1.75-5.86h0l-8.5-4.92A12.08,12.08,0,0,0,75.42,171V341.28c0,3.8,2.37,8,5.69,9.25,3.51,1.35,5.51,1,8.79-.91C86.61,351.52,83.94,350,83.94,346.18Z" style="fill:#263238"></path><path d="M93.07,172.54,302.23,51.81c2-1.13,3.57-.21,3.57,2.07V212.17a7.9,7.9,0,0,1-3.57,6.19L93.07,339.08c-2,1.14-3.57.22-3.57-2.06V178.73A7.9,7.9,0,0,1,93.07,172.54Z"></path><path d="M93.07,172.54a7.9,7.9,0,0,0-3.57,6.19V334.26L296.27,214.92a7.9,7.9,0,0,0,3.57-6.19V53.19Z" style="fill:#fff"></path><path d="M108.25,350.64,308,235.33a6.23,6.23,0,0,1,5.61,0l7.28,4.08c1.55.9,1.55,2.35,0,3.24L121.11,358a6.25,6.25,0,0,1-5.62,0l-7.24-4.06C106.7,353,106.7,351.54,108.25,350.64Z" style="fill:#263238"></path><path d="M127.86,362.21,327.59,246.9a5.71,5.71,0,0,1,5.13-.28l52,30c1.28.74,1.06,2.06-.49,3L184.73,394.75a5.74,5.74,0,0,1-5.14.29l-52.2-29.87C126.1,364.43,126.31,363.11,127.86,362.21Z" style="fill:#263238"></path><path d="M300.93,295.33l6.26-3.61c.26-.15.29-.39.05-.52l-6-3.46a1,1,0,0,0-.91,0l-6.25,3.62c-.27.15-.29.38-.06.52l6,3.45A1,1,0,0,0,300.93,295.33Zm-9.13-12.49-6.25,3.61c-.27.15-.29.39-.05.53l6,3.45a1,1,0,0,0,.91,0l6.25-3.61c.27-.16.29-.39.05-.53l-6-3.45A1,1,0,0,0,291.8,282.84Zm-20.2,11.67L261,300.62c-.27.15-.29.38-.06.52l6,3.45a1,1,0,0,0,.91,0l10.59-6.11c.26-.15.29-.39.05-.52l-6-3.46A1,1,0,0,0,271.6,294.51Zm11.06-6.39-6.25,3.61c-.27.15-.29.39-.05.52l6,3.46a1,1,0,0,0,.91,0l6.25-3.61c.27-.16.29-.39.05-.53l-6-3.45A1,1,0,0,0,282.66,288.12Zm-24.53,14.16-6.25,3.61c-.27.16-.29.39-.06.53l6,3.45a1,1,0,0,0,.9,0l6.26-3.61c.26-.15.29-.39,0-.53l-6-3.45A1,1,0,0,0,258.13,302.28ZM249,307.56l-6.25,3.61c-.27.15-.29.39-.06.52l6,3.46a1,1,0,0,0,.9,0l6.26-3.61c.26-.16.29-.39,0-.53l-6-3.45A1,1,0,0,0,249,307.56Zm23.45,14.09,6.25-3.61c.27-.15.29-.39.06-.52l-6-3.46a1,1,0,0,0-.9,0l-6.26,3.62c-.26.15-.29.38-.05.52l6,3.45A1,1,0,0,0,272.44,321.65Zm-9.14,5.28,6.25-3.61c.27-.15.29-.39.06-.53l-6-3.45a1,1,0,0,0-.9,0L256.46,323c-.26.16-.29.39,0,.53l6,3.45A1,1,0,0,0,263.3,326.93Zm-9.14,5.28,6.25-3.61c.27-.16.29-.39.06-.53l-6-3.45a1,1,0,0,0-.9,0l-6.26,3.61c-.26.15-.29.39,0,.52l6,3.46A1,1,0,0,0,254.16,332.21ZM245,337.48l6.25-3.61c.27-.15.29-.39.06-.52l-6-3.46a1,1,0,0,0-.9,0l-6.26,3.61c-.26.15-.29.38-.05.52l6,3.45A1,1,0,0,0,245,337.48Zm46.77-36.87,6.26-3.61c.26-.15.29-.39.05-.52l-6-3.46a1,1,0,0,0-.91,0L285,296.66c-.27.16-.29.39-.06.53l6,3.45A1,1,0,0,0,291.79,300.61Zm-10.21,15.77,13.95-8.06c.27-.15.29-.39.05-.52l-14.53-8.39a1,1,0,0,0-.9,0l-7.22,4.17c-.27.15-.29.38-.05.52l7.69,4.44c.23.14.21.37-.06.53l-5.77,3.33c-.26.15-.29.39-.05.52l6,3.46A1,1,0,0,0,281.58,316.38Zm-41.73-3.54-6.25,3.61c-.27.15-.29.38-.06.52l6,3.45a1,1,0,0,0,.9,0l6.26-3.61c.26-.15.29-.39.05-.52l-6-3.46A1,1,0,0,0,239.85,312.84Zm-9.14,5.27-6.25,3.61c-.27.16-.29.39-.06.53l6,3.45a1,1,0,0,0,.9,0l6.26-3.61c.26-.15.29-.39,0-.52l-6-3.46A1,1,0,0,0,230.71,318.11Zm-50.58,56.34a1,1,0,0,0,.91,0l6.25-3.61c.27-.15.29-.39.06-.52l-6-3.46a1,1,0,0,0-.91,0l-6.26,3.61c-.26.16-.29.39,0,.53Zm-22.54-14.12-6.25,3.61c-.27.15-.29.39-.06.52l6,3.46a1,1,0,0,0,.91,0l6.25-3.62c.26-.15.29-.38,0-.52l-6-3.45A1,1,0,0,0,157.59,360.33Zm11.59,10.58a1,1,0,0,0,.91,0l6.25-3.61c.27-.16.29-.39.06-.53l-6-3.45a1,1,0,0,0-.9,0l-6.26,3.61c-.26.15-.29.39-.05.52Zm25.22,5.67,6.25-3.61c.27-.16.29-.39.06-.53l-6-3.45a1,1,0,0,0-.91,0l-6.25,3.61c-.26.15-.29.39-.05.53l6,3.45A1,1,0,0,0,194.4,376.58Zm-10.05,5.31a1,1,0,0,0,.91,0l6.25-3.61c.27-.16.29-.39.06-.53l-6-3.45a1,1,0,0,0-.91,0l-6.25,3.61c-.26.15-.29.39,0,.52Zm-17.62-26.84-6.25,3.61c-.27.15-.29.39-.06.53l6,3.45a1,1,0,0,0,.9,0l6.26-3.61c.26-.16.29-.39.05-.53l-6-3.45A1,1,0,0,0,166.73,355.05Zm45.7-26.38-6.25,3.61c-.27.15-.29.38-.06.52l6,3.46a1,1,0,0,0,.9,0l6.26-3.61c.26-.15.29-.38,0-.52l-6-3.45A1,1,0,0,0,212.43,328.67Zm-36.56,21.1-6.25,3.61c-.27.16-.29.39-.06.53l6,3.45a1,1,0,0,0,.9,0l6.26-3.61c.26-.15.29-.39,0-.52l-6-3.46A1,1,0,0,0,175.87,349.77Zm45.7-26.38L215.32,327c-.27.15-.29.39-.06.52l6,3.46a1,1,0,0,0,.9,0l6.26-3.61c.26-.16.29-.39.05-.53l-6-3.45A1,1,0,0,0,221.57,323.39Zm-18.28,10.55L197,337.55c-.27.16-.29.39-.06.53l6,3.45a1,1,0,0,0,.9,0l6.26-3.61c.26-.15.29-.39.05-.52l-6-3.46A1,1,0,0,0,203.29,333.94Zm-9.14,5.28-6.25,3.61c-.27.15-.29.39-.06.52l6,3.46a1,1,0,0,0,.9,0l6.26-3.61c.26-.16.29-.39,0-.53l-6-3.45A1,1,0,0,0,194.15,339.22ZM185,344.5l-6.25,3.61c-.27.15-.29.39-.06.52l6,3.46a1,1,0,0,0,.9,0l6.26-3.62c.26-.15.29-.38.05-.52l-6-3.45A1,1,0,0,0,185,344.5ZM226.74,348l6.25-3.61c.27-.16.29-.39.06-.53l-6-3.45a1,1,0,0,0-.9,0l-6.26,3.61c-.26.15-.29.39-.05.52l6,3.46A1,1,0,0,0,226.74,348ZM312,271.18l-6.26,3.61c-.26.15-.29.38-.05.52l6,3.45a1,1,0,0,0,.91,0l6.25-3.61c.27-.15.29-.38.06-.52l-6-3.46A1,1,0,0,0,312,271.18Zm-11.07,6.38-6.25,3.61c-.27.16-.29.39-.05.53l6,3.45a1,1,0,0,0,.91,0l6.25-3.61c.27-.15.29-.39.05-.52l-6-3.46A1,1,0,0,0,300.94,277.56Zm20.21-11.66-6.26,3.61c-.26.15-.29.39-.05.52l6,3.46a1,1,0,0,0,.91,0l6.25-3.61c.27-.16.29-.39.06-.53l-6-3.45A1,1,0,0,0,321.15,265.9Zm-50.52,46.93,6.25-3.61c.27-.15.29-.39.05-.52l-6-3.46a1,1,0,0,0-.91,0l-6.25,3.61c-.27.16-.29.39-.05.53l6,3.45A1,1,0,0,0,270.63,312.83Zm60.56-52.24a1,1,0,0,0-.9,0L324,264.23c-.26.16-.29.39,0,.53l6,3.45a1,1,0,0,0,.91,0l6.25-3.61c.27-.15.29-.39.06-.52Zm-95.31,82.17,6.25-3.61c.27-.15.29-.39.06-.52l-6-3.46a1,1,0,0,0-.9,0L229,338.81c-.26.16-.29.39,0,.53l6,3.45A1,1,0,0,0,235.88,342.76ZM348,278.05l6.26-3.61c.26-.15.29-.39,0-.53l-6-3.45a1,1,0,0,0-.91,0l-6.25,3.61c-.27.15-.29.39-.06.53l6,3.45A1,1,0,0,0,348,278.05Zm-17.68.34,6.25-3.61c.27-.15.29-.39.05-.52l-6-3.46a1,1,0,0,0-.91,0l-6.25,3.61c-.27.16-.29.39-.05.53l6,3.45A1,1,0,0,0,330.28,278.39Zm9.46-12.86a1,1,0,0,0-.91,0l-6.25,3.61c-.27.15-.29.39-.05.52l6,3.46a1,1,0,0,0,.91,0l6.25-3.61c.27-.15.29-.38.05-.52Zm1.93-1.12,14.52,8.39a1,1,0,0,0,.91,0l6.26-3.61c.26-.15.29-.39.05-.52l-14.53-8.39a1,1,0,0,0-.91,0l-6.25,3.61C341.45,264,341.43,264.28,341.67,264.41Zm-21.12,11.7-6.25,3.61c-.27.15-.29.39-.05.53l6,3.45a1,1,0,0,0,.91,0l6.25-3.61c.27-.16.29-.39.05-.53l-6-3.45A1,1,0,0,0,320.55,276.11Zm-68.79,39.72-6.25,3.61c-.27.15-.29.38,0,.52l6,3.45a1,1,0,0,0,.91,0l6.25-3.61c.27-.15.29-.38,0-.52l-6-3.46A1,1,0,0,0,251.76,315.83Zm86.16-32.47a1,1,0,0,0,.9,0l6.26-3.61c.26-.16.29-.39.05-.53l-6-3.45a1,1,0,0,0-.91,0L332,279.38c-.27.15-.29.39-.06.52Zm-77,27.19-6.25,3.61c-.27.15-.29.39-.05.52l6,3.46a1,1,0,0,0,.91,0l6.25-3.61c.27-.16.29-.39.05-.53l-6-3.45A1,1,0,0,0,260.9,310.55Zm-71.63,58.63a1,1,0,0,0,.91,0l6.25-3.61c.27-.15.29-.38.06-.52l-6-3.45a1,1,0,0,0-.91,0l-6.26,3.61c-.26.15-.29.39-.05.52ZM178.65,358l-6.26,3.61c-.26.15-.29.39,0,.53l6,3.45a1,1,0,0,0,.91,0l6.25-3.61c.27-.15.29-.39.06-.53l-6-3.45A1,1,0,0,0,178.65,358Zm20.67,5.83,6.25-3.61c.27-.16.29-.39.06-.53l-6-3.45a1,1,0,0,0-.91,0l-6.26,3.61c-.26.15-.29.39,0,.52l6,3.46A1,1,0,0,0,199.32,363.87Zm9.14-5.28,6.25-3.61c.27-.15.29-.39.06-.52l-6-3.46a1,1,0,0,0-.9,0l-6.26,3.61c-.26.16-.29.39-.05.53l6,3.45A1,1,0,0,0,208.46,358.59Zm9.14-5.28,6.25-3.61c.27-.15.29-.38.06-.52l-6-3.45a1,1,0,0,0-.9,0l-6.26,3.61c-.26.15-.29.39,0,.52l6,3.46A1,1,0,0,0,217.6,353.31Zm-29.82-.55-6.25,3.61c-.26.16-.29.39-.05.53l6,3.45a1,1,0,0,0,.91,0l6.25-3.61c.27-.15.29-.39.06-.52l-6-3.46A1,1,0,0,0,187.78,352.76Zm9.14-5.27-6.25,3.61c-.26.15-.29.39,0,.52l6,3.46a1,1,0,0,0,.91,0l6.25-3.62c.27-.15.29-.38.06-.52l-6-3.45A1,1,0,0,0,196.92,347.49Zm36.56-21.11L227.23,330c-.27.15-.29.39,0,.52l6,3.46a1,1,0,0,0,.91,0l6.25-3.61c.27-.16.29-.39.06-.53l-6-3.45A1,1,0,0,0,233.48,326.38Zm-9.14,5.28-6.25,3.61c-.26.15-.29.39-.05.52l6,3.46a1,1,0,0,0,.91,0l6.25-3.61c.27-.15.29-.38.06-.52l-6-3.45A1,1,0,0,0,224.34,331.66Zm18.28-10.56-6.25,3.61c-.27.16-.29.39-.05.53l6,3.45a1,1,0,0,0,.91,0l6.25-3.61c.27-.15.29-.39,0-.52l-6-3.46A1,1,0,0,0,242.62,321.1Zm-36.56,21.11-6.25,3.61c-.26.15-.29.39-.05.53l6,3.45a1,1,0,0,0,.91,0l6.25-3.61c.27-.16.29-.39.06-.53l-6-3.45A1,1,0,0,0,206.06,342.21Zm9.14-5.28L209,340.54c-.26.16-.29.39,0,.53l6,3.45a1,1,0,0,0,.91,0l6.25-3.61c.27-.15.29-.39.06-.52l-6-3.46A1,1,0,0,0,215.2,336.93ZM203.54,371.3l6.25-3.61c.27-.15.29-.39.06-.52l-6-3.46a1,1,0,0,0-.91,0l-6.25,3.61c-.27.16-.29.39,0,.53l6,3.45A1,1,0,0,0,203.54,371.3ZM155.34,369l-6-3.46a1,1,0,0,0-.91,0l-6.25,3.62c-.27.15-.29.38-.06.52l6,3.45a1,1,0,0,0,.91,0l6.25-3.61C155.55,369.4,155.58,369.16,155.34,369Zm11.92,3-6-3.46a1,1,0,0,0-.9,0l-9.63,5.56c-.26.15-.29.39-.05.52l6,3.46a1,1,0,0,0,.91,0l9.62-5.56C167.47,372.39,167.49,372.15,167.26,372Zm-20.85-9.81-6-3.46a1,1,0,0,0-.91,0l-7.7,4.45c-.26.15-.29.38,0,.52l6,3.45a1,1,0,0,0,.91,0l7.7-4.44C146.62,362.58,146.65,362.34,146.41,362.21Zm5.9-3.41a1,1,0,0,0,.91,0l6.26-3.61c.26-.16.29-.39.05-.53l-6-3.45a1,1,0,0,0-.91,0l-6.26,3.61c-.26.15-.29.39,0,.52Zm25.9,16.76-6-3.45a1,1,0,0,0-.91,0l-12,6.94c-.26.16-.29.39,0,.53l6,3.45a1,1,0,0,0,.91,0l12-6.94C178.42,375.93,178.44,375.7,178.21,375.56Zm4.22,7.44-6-3.46a1,1,0,0,0-.91,0L167.84,384c-.27.15-.29.39-.06.52l6,3.46a1,1,0,0,0,.91,0l7.69-4.45C182.64,383.37,182.66,383.13,182.43,383Zm37.84-63.44a1,1,0,0,0,.91,0l6.25-3.61c.27-.15.29-.39,0-.52l-6-3.46a1,1,0,0,0-.91,0l-6.25,3.61c-.27.15-.29.38-.05.52ZM202,330.12a1,1,0,0,0,.91,0l6.25-3.61c.27-.16.29-.39,0-.53l-6-3.45a1,1,0,0,0-.91,0l-6.25,3.61c-.27.15-.29.39-.05.52Zm-40.54,23.4a1,1,0,0,0,.91,0l6.25-3.61c.27-.15.29-.39.06-.52l-6-3.46a1,1,0,0,0-.91,0l-6.26,3.61c-.26.16-.29.39-.05.53Zm49.68-28.68a1,1,0,0,0,.91,0l6.25-3.61c.27-.15.29-.39.05-.52l-6-3.46a1,1,0,0,0-.91,0l-6.25,3.61c-.27.16-.29.39,0,.53ZM192.85,335.4a1,1,0,0,0,.91,0l6.25-3.61c.27-.15.29-.38.05-.52l-6-3.46a1,1,0,0,0-.91,0l-6.25,3.61c-.27.15-.29.39,0,.52Zm-5.94,48a1,1,0,0,0-.9,0L176.38,389c-.26.16-.28.39,0,.53l6,3.45a1,1,0,0,0,.91,0l9.62-5.55c.27-.16.29-.39.06-.53ZM179.73,343a1,1,0,0,0,.91,0l6.25-3.61c.27-.16.29-.39.06-.53l-6-3.45a1,1,0,0,0-.91,0L173.8,339c-.26.15-.29.39-.05.52Zm-9.14,5.27a1,1,0,0,0,.91,0l6.25-3.61c.27-.15.29-.38.06-.52l-6-3.46a1,1,0,0,0-.91,0l-6.26,3.61c-.26.15-.29.38,0,.52Zm185.65-62.63a1,1,0,0,0-.91,0l-15.39,8.88c-.27.16-.29.39-.05.53l6,3.45a1,1,0,0,0,.91,0l15.39-8.89c.27-.15.29-.38.05-.52ZM336,297.27a1,1,0,0,0-.91,0l-6.25,3.61c-.27.16-.29.39-.06.53l6,3.45a1,1,0,0,0,.91,0l6.26-3.61c.26-.15.29-.39,0-.53ZM212.68,366l6.25-3.62c.27-.15.29-.38.06-.52l-6-3.45a1,1,0,0,0-.91,0l-6.25,3.61c-.27.15-.29.39-.05.52l6,3.46A1,1,0,0,0,212.68,366Zm105.08-58.21a1,1,0,0,0-.91,0l-6.25,3.61c-.27.15-.29.38-.06.52l6,3.45a1,1,0,0,0,.91,0l6.26-3.61c.26-.15.29-.39.05-.52Zm47.62-27.49a1,1,0,0,0-.91,0L358.22,284c-.27.15-.29.39-.05.52l6,3.46a1,1,0,0,0,.91,0l6.25-3.61c.27-.16.29-.39.05-.53Zm15.12-1.82L366,270.12a1,1,0,0,0-.9,0l-6.26,3.61c-.26.15-.29.39-.05.52l14.53,8.39a1,1,0,0,0,.91,0l6.25-3.61C380.72,278.88,380.74,278.64,380.5,278.51Zm-96.9,49a1,1,0,0,0-.9,0L275,332c-.27.15-.29.39-.05.52l6,3.46a1,1,0,0,0,.91,0l7.69-4.45c.27-.15.29-.39.06-.52Zm23.09-13.33a1,1,0,0,0-.9,0l-9.62,5.56c-.27.15-.29.39-.06.52l6,3.46a1,1,0,0,0,.91,0l9.62-5.56c.27-.15.29-.39.06-.52Zm-44.25,25.55a1,1,0,0,0-.91,0l-51.47,29.72c-.27.16-.29.39-.06.53l6,3.45a1,1,0,0,0,.91,0l51.47-29.72c.26-.15.29-.39.05-.52Zm-54.36,31.39a1,1,0,0,0-.91,0l-7.7,4.44c-.26.15-.29.39-.05.53l6,3.45a1,1,0,0,0,.91,0l7.7-4.44c.26-.16.29-.39.05-.53ZM273,333.65a1,1,0,0,0-.91,0l-7.69,4.45c-.27.15-.29.39-.06.52l6,3.46a1,1,0,0,0,.9,0l7.7-4.45c.27-.15.29-.39.05-.52ZM197.5,377.26a1,1,0,0,0-.91,0l-7.7,4.44c-.26.16-.29.39,0,.53l6,3.45a1,1,0,0,0,.91,0l7.7-4.44c.26-.16.29-.39,0-.53Zm96.69-55.83a1,1,0,0,0-.91,0l-7.7,4.45c-.26.15-.29.39-.05.52l6,3.46a1,1,0,0,0,.91,0l7.7-4.45c.26-.15.29-.39.05-.52Zm32.71-18.88a1,1,0,0,0-.91,0l-6.25,3.61c-.27.15-.29.39-.06.52l6,3.46a1,1,0,0,0,.9,0l6.26-3.61c.26-.16.29-.39.05-.53Zm20.47-14.29,6.25-3.61c.27-.15.29-.39.06-.52l-6-3.46a1,1,0,0,0-.9,0l-6.26,3.61c-.26.16-.29.39,0,.53l6,3.45A1,1,0,0,0,347.37,288.26Zm-37.3,1.8,6.26-3.61c.26-.16.29-.39.05-.53l-6-3.45a1,1,0,0,0-.91,0l-6.25,3.61c-.27.15-.29.39-.06.52l6,3.46A1,1,0,0,0,310.07,290.06ZM285.8,323.81l18.28-10.55c.26-.16.29-.39.05-.53l-6-3.45a1,1,0,0,0-.91,0L279,319.86c-.27.16-.29.39,0,.53l6,3.45A1,1,0,0,0,285.8,323.81Zm51.52-30.24a1,1,0,0,0,.91,0l6.25-3.61c.27-.16.29-.39.06-.53l-6-3.45a1,1,0,0,0-.9,0l-6.26,3.61c-.26.15-.29.39-.05.52Zm-7.64-5,6.26-3.61c.26-.15.29-.39.05-.52L330,281a1,1,0,0,0-.91,0l-6.25,3.62c-.27.15-.29.38-.06.52l6,3.45A1,1,0,0,0,329.68,288.6Zm-53,40.49,6.25-3.61c.27-.16.29-.39,0-.53l-6-3.45a1,1,0,0,0-.91,0l-6.25,3.61c-.27.15-.29.39-.05.52l6,3.46A1,1,0,0,0,276.66,329.09Zm40.46-23.86a1,1,0,0,0,.91,0l6.25-3.61c.27-.15.29-.39.05-.52l-6-3.46a1,1,0,0,0-.91,0l-6.25,3.61c-.27.16-.29.39-.05.53ZM231,355.47l6.25-3.61c.27-.15.29-.39.06-.52l-6-3.46a1,1,0,0,0-.91,0l-6.25,3.61c-.27.16-.29.39-.05.53l6,3.45A1,1,0,0,0,231,355.47Zm9.14-5.28,6.25-3.61c.27-.15.29-.38.05-.52l-6-3.45a1,1,0,0,0-.91,0l-6.25,3.61c-.27.15-.29.39,0,.52l6,3.46A1,1,0,0,0,240.1,350.19Zm-18.28,10.56,6.25-3.61c.27-.16.29-.39.05-.53l-6-3.45a1,1,0,0,0-.91,0L215,356.8c-.27.15-.29.39,0,.53l6,3.45A1,1,0,0,0,221.82,360.75Zm36.56-21.11,6.25-3.61c.27-.15.29-.39.05-.52l-6-3.46a1,1,0,0,0-.91,0l-6.25,3.61c-.27.16-.29.39,0,.53l6,3.45A1,1,0,0,0,258.38,339.64Zm-9.14,5.28,6.25-3.61c.27-.16.29-.39,0-.53l-6-3.45a1,1,0,0,0-.91,0L242.4,341c-.27.15-.29.39-.05.52l6,3.46A1,1,0,0,0,249.24,344.92Zm18.28-10.56,6.25-3.61c.27-.15.29-.39.05-.52l-6-3.46a1,1,0,0,0-.91,0l-6.25,3.61c-.27.15-.29.38-.05.52l6,3.46A1,1,0,0,0,267.52,334.36ZM317.39,261a1,1,0,0,0,.91,0l6.26-3.61c.26-.15.28-.38.05-.52l-1.59-.92a1,1,0,0,0-.91,0l-6.26,3.61c-.26.15-.28.39-.05.53ZM272,289.72a1,1,0,0,0,.9,0l6.26-3.61c.26-.16.29-.39.05-.53l-6-3.45a1,1,0,0,0-.91,0L266,285.74c-.27.15-.29.39-.06.52Zm18.28-10.56a1,1,0,0,0,.9,0l6.26-3.61c.26-.15.29-.39,0-.52l-6-3.46a1,1,0,0,0-.91,0l-6.25,3.62c-.27.15-.29.38-.06.52Zm-29.45,17a1,1,0,0,0,.91,0l6.26-3.61c.26-.15.29-.39,0-.53l-6-3.45a1,1,0,0,0-.91,0l-6.25,3.61c-.27.16-.29.39-.06.53Zm20.31-11.72a1,1,0,0,0,.9,0l6.26-3.61c.26-.15.29-.39.05-.53l-6-3.45a1,1,0,0,0-.91,0l-6.25,3.61c-.27.16-.29.39-.06.53Zm-38.59,22.28a1,1,0,0,0,.91,0l6.26-3.61c.26-.15.29-.38.05-.52l-6-3.46a1,1,0,0,0-.91,0l-6.25,3.61c-.27.15-.29.38-.06.52Zm9.14-5.28a1,1,0,0,0,.91,0l6.26-3.61c.26-.16.29-.39.05-.53l-6-3.45a1,1,0,0,0-.91,0l-6.25,3.61c-.27.15-.29.39-.06.52Zm47.45-29.93a1,1,0,0,0,.91,0l6.26-3.61c.26-.16.29-.39.05-.53l-1.59-.92a1,1,0,0,0-.91,0l-6.25,3.62c-.27.15-.3.38-.06.52Zm27.42-15.83a1,1,0,0,0,.91,0L333.7,252c.26-.16.29-.39.05-.53l-1.59-.92a1,1,0,0,0-.91,0L325,254.23c-.26.16-.29.39-.05.53Zm12.57,7.25a1,1,0,0,0,.91,0l6.25-3.61c.27-.15.29-.39.06-.52l-6-3.46a1,1,0,0,0-.9,0L333.17,259c-.26.15-.29.38-.05.52ZM356.51,283l6.25-3.61c.27-.15.29-.39.06-.52l-6-3.46a1,1,0,0,0-.9,0L349.67,279c-.26.15-.29.38-.05.52l6,3.45A1,1,0,0,0,356.51,283Zm-48.26-16.75a1,1,0,0,0,.91,0l6.26-3.61c.26-.15.29-.39.05-.52l-1.59-.92a1,1,0,0,0-.91,0l-6.26,3.61c-.26.15-.29.39,0,.52ZM233.39,312a1,1,0,0,0,.9,0l6.26-3.61c.26-.15.29-.39,0-.52l-6-3.46a1,1,0,0,0-.91,0L227.46,308c-.27.16-.29.39-.06.53Z" style="fill:#455a64"></path><polygon points="259.56 364 260.92 364.79 297.04 385.64 361.27 348.55 362.61 347.79 325.13 326.16 259.56 364" style="fill:#263238"></polygon><polygon points="360.44 349.03 325.13 328.65 261.75 365.26 297.04 385.64 360.44 349.03" style="fill:#37474f"></polygon></g></g><g id="freepik--gears-1--inject-3"><g id="freepik--Gears--inject-3"><g id="freepik--gear--inject-3"><path d="M264.41,210.33a2.43,2.43,0,0,1,3-.19l3.43,2.57a1.94,1.94,0,0,0,2.76-.41l6.61-9.11a3.12,3.12,0,0,0,.09-3.29l-2.65-4.1a3.93,3.93,0,0,1-.18-3.46c.84-1.76,1.61-3.56,2.27-5.38a5.73,5.73,0,0,1,2.44-2.77l6.47-3.21a4.25,4.25,0,0,0,2.07-2.86l1.37-9.55a1.31,1.31,0,0,0-.53-1.37h0l-.09-.05h0l-7.92-4.57h0a1.53,1.53,0,0,0-1.1-.12l-.74.17a4.76,4.76,0,0,1,.57-2.51l5.48-8.66a2.75,2.75,0,0,0-.28-3.15L284,144.47a1.64,1.64,0,0,0-.49-.35v0l-8-4.62h0a1.68,1.68,0,0,0-2.12.45l-5.14,6.19.2-3.45a1.27,1.27,0,0,0-.57-1.26h0l-8-4.63h0a1.4,1.4,0,0,0-1.16,0l-7,2.57a4.06,4.06,0,0,0-2.31,2.63l-2,8.91a6.19,6.19,0,0,1-2.06,3.09,48.49,48.49,0,0,0-3.83,3.18,2.34,2.34,0,0,1-1.27.59l-5.4-3.12h0a1.94,1.94,0,0,0-2.53.55l-6.61,9.11a3.12,3.12,0,0,0-.09,3.29l2.65,4.1a3.93,3.93,0,0,1,.18,3.46c-.84,1.76-1.61,3.56-2.27,5.38a5.73,5.73,0,0,1-2.44,2.77l-6.47,3.21a4.25,4.25,0,0,0-2.07,2.86l-1.37,9.55a1.29,1.29,0,0,0,.57,1.4h0l8,4.61h0a1.51,1.51,0,0,0,1.09.11l.74-.17a4.76,4.76,0,0,1-.57,2.51L218.17,216a2.75,2.75,0,0,0,.28,3.15L222,223a1.62,1.62,0,0,0,.44.35h0l8,4.6v0a1.65,1.65,0,0,0,2.19-.38l5.14-6.19-.2,3.45a1.27,1.27,0,0,0,.58,1.27h0l8,4.6h0a1.41,1.41,0,0,0,1.2.05l7-2.58a4,4,0,0,0,2.31-2.63l2-8.91a6.19,6.19,0,0,1,2.06-3.09A46.4,46.4,0,0,0,264.41,210.33Zm-1.51-43.77a16.59,16.59,0,0,1,1,9.38c-1.49,10.36-9.36,21.2-17.58,24.23a12.32,12.32,0,0,1-3.23.77,16.58,16.58,0,0,1-1-9.41c1.49-10.35,9.36-21.2,17.58-24.23A12.51,12.51,0,0,1,262.9,166.56Z" style="fill:#9F10D1"></path><path d="M264.41,210.33a2.43,2.43,0,0,1,3-.19l3.43,2.57a1.94,1.94,0,0,0,2.76-.41l6.61-9.11a3.12,3.12,0,0,0,.09-3.29l-2.65-4.1a3.93,3.93,0,0,1-.18-3.46c.84-1.76,1.61-3.56,2.27-5.38a5.73,5.73,0,0,1,2.44-2.77l6.47-3.21a4.25,4.25,0,0,0,2.07-2.86l1.37-9.55a1.31,1.31,0,0,0-.53-1.37h0l-.09-.05h0l-7.92-4.57h0a1.53,1.53,0,0,0-1.1-.12l-.74.17a4.76,4.76,0,0,1,.57-2.51l5.48-8.66a2.75,2.75,0,0,0-.28-3.15L284,144.47a1.64,1.64,0,0,0-.49-.35v0l-8-4.62h0a1.68,1.68,0,0,0-2.12.45l-5.14,6.19.2-3.45a1.27,1.27,0,0,0-.57-1.26h0l-8-4.63h0a1.4,1.4,0,0,0-1.16,0l-7,2.57a4.06,4.06,0,0,0-2.31,2.63l-2,8.91a6.19,6.19,0,0,1-2.06,3.09,48.49,48.49,0,0,0-3.83,3.18,2.34,2.34,0,0,1-1.27.59l-5.4-3.12h0a1.94,1.94,0,0,0-2.53.55l-6.61,9.11a3.12,3.12,0,0,0-.09,3.29l2.65,4.1a3.93,3.93,0,0,1,.18,3.46c-.84,1.76-1.61,3.56-2.27,5.38a5.73,5.73,0,0,1-2.44,2.77l-6.47,3.21a4.25,4.25,0,0,0-2.07,2.86l-1.37,9.55a1.29,1.29,0,0,0,.57,1.4h0l8,4.61h0a1.51,1.51,0,0,0,1.09.11l.74-.17a4.76,4.76,0,0,1-.57,2.51L218.17,216a2.75,2.75,0,0,0,.28,3.15L222,223a1.62,1.62,0,0,0,.44.35h0l8,4.6v0a1.65,1.65,0,0,0,2.19-.38l5.14-6.19-.2,3.45a1.27,1.27,0,0,0,.58,1.27h0l8,4.6h0a1.41,1.41,0,0,0,1.2.05l7-2.58a4,4,0,0,0,2.31-2.63l2-8.91a6.19,6.19,0,0,1,2.06-3.09A46.4,46.4,0,0,0,264.41,210.33Zm-1.51-43.77a16.59,16.59,0,0,1,1,9.38c-1.49,10.36-9.36,21.2-17.58,24.23a12.32,12.32,0,0,1-3.23.77,16.58,16.58,0,0,1-1-9.41c1.49-10.35,9.36-21.2,17.58-24.23A12.51,12.51,0,0,1,262.9,166.56Z" style="fill:#fff;opacity:0.2"></path><path d="M271.89,153.06a3.35,3.35,0,0,0,3.16-.92l6.31-7.6a1.68,1.68,0,0,1,2-.49l-7.9-4.57a1.7,1.7,0,0,0-2.12.44l-5.14,6.19-.27,4.58a1.94,1.94,0,0,0,1.88,2A13.16,13.16,0,0,1,271.89,153.06Zm11.69,9.5h0a1.53,1.53,0,0,0-1.09-.13l-.74.18a3.89,3.89,0,0,0,.14,1.06,21.08,21.08,0,0,1,.66,3.22,1.73,1.73,0,0,0,2.15,1.52l5.77-1.36a1.41,1.41,0,0,1,1.09.12Z" style="opacity:0.1"></path><path d="M271.85,180.56c1.28-8.94-2.59-14.58-9-14a16.58,16.58,0,0,1,1,9.38c-1.49,10.36-9.35,21.21-17.58,24.24a12.56,12.56,0,0,1-3.22.75c1.92,4.11,6,5.78,11.2,3.86C262.5,201.76,270.36,190.91,271.85,180.56Z" style="opacity:0.1"></path><path d="M236.73,177.63a3.34,3.34,0,0,0-.47-1.34l-2.65-4.11a3.12,3.12,0,0,1-.37-2.12l-8-4.61a3,3,0,0,0,.37,2.11l2.65,4.12a3.47,3.47,0,0,1,.44,1.35Zm-14.34,27.29h0a1.3,1.3,0,0,1-.58-1.4l1.37-9.54a4.05,4.05,0,0,1,1.09-2.08l-8-4.62a4.13,4.13,0,0,0-1.09,2.08l-1.37,9.56a1.29,1.29,0,0,0,.56,1.39Zm33.06-49.54,2-8.8a3.89,3.89,0,0,1,1.11-1.86l-8-4.61a4,4,0,0,0-1.14,1.85l-2,8.81ZM230.37,228a4.32,4.32,0,0,1-.42-.35l-3.52-3.81a2.75,2.75,0,0,1-.28-3.15l5.47-8.66a3.89,3.89,0,0,0,.52-1.55l-8-4.61a4.18,4.18,0,0,1-.52,1.55L218.17,216a2.76,2.76,0,0,0,.28,3.15L222,223a1.48,1.48,0,0,0,.44.36ZM246,230.69a1,1,0,0,1-.24-.23,1,1,0,0,1-.26-.5,1.93,1.93,0,0,1,0-.55l.46-8a1.3,1.3,0,0,0-.05-.53,1.67,1.67,0,0,0-.41-.79,1.86,1.86,0,0,0-.57-.46l-.33-.14a4.64,4.64,0,0,0-.51-.11,13.36,13.36,0,0,1-2-.32,3.35,3.35,0,0,0-3.18.91l-1.16,1.41-.21,3.45a1.3,1.3,0,0,0,.59,1.27h0Z" style="fill:#9F10D1"></path><path d="M236.73,177.63a3.34,3.34,0,0,0-.47-1.34l-2.65-4.11a3.12,3.12,0,0,1-.37-2.12l-8-4.61a3,3,0,0,0,.37,2.11l2.65,4.12a3.47,3.47,0,0,1,.44,1.35Zm-14.34,27.29h0a1.3,1.3,0,0,1-.58-1.4l1.37-9.54a4.05,4.05,0,0,1,1.09-2.08l-8-4.62a4.13,4.13,0,0,0-1.09,2.08l-1.37,9.56a1.29,1.29,0,0,0,.56,1.39Zm33.06-49.54,2-8.8a3.89,3.89,0,0,1,1.11-1.86l-8-4.61a4,4,0,0,0-1.14,1.85l-2,8.81ZM230.37,228a4.32,4.32,0,0,1-.42-.35l-3.52-3.81a2.75,2.75,0,0,1-.28-3.15l5.47-8.66a3.89,3.89,0,0,0,.52-1.55l-8-4.61a4.18,4.18,0,0,1-.52,1.55L218.17,216a2.76,2.76,0,0,0,.28,3.15L222,223a1.48,1.48,0,0,0,.44.36ZM246,230.69a1,1,0,0,1-.24-.23,1,1,0,0,1-.26-.5,1.93,1.93,0,0,1,0-.55l.46-8a1.3,1.3,0,0,0-.05-.53,1.67,1.67,0,0,0-.41-.79,1.86,1.86,0,0,0-.57-.46l-.33-.14a4.64,4.64,0,0,0-.51-.11,13.36,13.36,0,0,1-2-.32,3.35,3.35,0,0,0-3.18.91l-1.16,1.41-.21,3.45a1.3,1.3,0,0,0,.59,1.27h0Z" style="fill:#fff;opacity:0.7000000000000001"></path><path d="M256.53,225.51l2-8.91a6.19,6.19,0,0,1,2.06-3.09,44.8,44.8,0,0,0,3.83-3.18,2.43,2.43,0,0,1,3-.19l3.43,2.57a1.94,1.94,0,0,0,2.76-.41l6.61-9.11a3.12,3.12,0,0,0,.09-3.29l-2.65-4.1a3.93,3.93,0,0,1-.18-3.46c.84-1.76,1.61-3.56,2.27-5.38a5.73,5.73,0,0,1,2.44-2.77l6.47-3.21a4.25,4.25,0,0,0,2.07-2.86l1.37-9.55a1.26,1.26,0,0,0-1.65-1.52l-5.78,1.36a1.72,1.72,0,0,1-2.14-1.53,25.26,25.26,0,0,0-.67-3.21,5,5,0,0,1,.43-3.57l5.48-8.66a2.75,2.75,0,0,0-.28-3.15L284,144.47a1.69,1.69,0,0,0-2.62.07l-6.31,7.6a3.36,3.36,0,0,1-3.16.92,15,15,0,0,0-2-.34,2,2,0,0,1-1.88-2l.47-8a1.2,1.2,0,0,0-1.75-1.3l-7,2.57a4.08,4.08,0,0,0-2.3,2.63l-2,8.91a6,6,0,0,1-2.06,3.09,46.63,46.63,0,0,0-3.82,3.18,2.44,2.44,0,0,1-3,.19l-3.43-2.57a2,2,0,0,0-2.76.42l-6.61,9.11a3.15,3.15,0,0,0-.09,3.28l2.65,4.1a3.94,3.94,0,0,1,.19,3.46c-.85,1.76-1.61,3.56-2.28,5.38a5.76,5.76,0,0,1-2.43,2.77l-6.48,3.22a4.28,4.28,0,0,0-2.07,2.85l-1.37,9.56a1.27,1.27,0,0,0,1.66,1.51l5.77-1.36a1.74,1.74,0,0,1,2.15,1.53,25.28,25.28,0,0,0,.66,3.21,5,5,0,0,1-.43,3.58l-5.48,8.65a2.75,2.75,0,0,0,.29,3.15l3.51,3.82a1.69,1.69,0,0,0,2.62-.07l6.31-7.59A3.31,3.31,0,0,1,242,219a13.49,13.49,0,0,0,2.05.33,2,2,0,0,1,1.87,2l-.47,8a1.21,1.21,0,0,0,1.75,1.3l7-2.58A4,4,0,0,0,256.53,225.51Zm-2.26-20.72c-8.22,3-13.68-2.91-12.19-13.26s9.36-21.2,17.58-24.23,13.68,2.9,12.19,13.26S262.5,201.76,254.27,204.79Z" style="fill:#9F10D1"></path><g style="opacity:0.55"><path d="M256.53,225.51l2-8.91a6.19,6.19,0,0,1,2.06-3.09,44.8,44.8,0,0,0,3.83-3.18,2.43,2.43,0,0,1,3-.19l3.43,2.57a1.94,1.94,0,0,0,2.76-.41l6.61-9.11a3.12,3.12,0,0,0,.09-3.29l-2.65-4.1a3.93,3.93,0,0,1-.18-3.46c.84-1.76,1.61-3.56,2.27-5.38a5.73,5.73,0,0,1,2.44-2.77l6.47-3.21a4.25,4.25,0,0,0,2.07-2.86l1.37-9.55a1.26,1.26,0,0,0-1.65-1.52l-5.78,1.36a1.72,1.72,0,0,1-2.14-1.53,25.26,25.26,0,0,0-.67-3.21,5,5,0,0,1,.43-3.57l5.48-8.66a2.75,2.75,0,0,0-.28-3.15L284,144.47a1.69,1.69,0,0,0-2.62.07l-6.31,7.6a3.36,3.36,0,0,1-3.16.92,15,15,0,0,0-2-.34,2,2,0,0,1-1.88-2l.47-8a1.2,1.2,0,0,0-1.75-1.3l-7,2.57a4.08,4.08,0,0,0-2.3,2.63l-2,8.91a6,6,0,0,1-2.06,3.09,46.63,46.63,0,0,0-3.82,3.18,2.44,2.44,0,0,1-3,.19l-3.43-2.57a2,2,0,0,0-2.76.42l-6.61,9.11a3.15,3.15,0,0,0-.09,3.28l2.65,4.1a3.94,3.94,0,0,1,.19,3.46c-.85,1.76-1.61,3.56-2.28,5.38a5.76,5.76,0,0,1-2.43,2.77l-6.48,3.22a4.28,4.28,0,0,0-2.07,2.85l-1.37,9.56a1.27,1.27,0,0,0,1.66,1.51l5.77-1.36a1.74,1.74,0,0,1,2.15,1.53,25.28,25.28,0,0,0,.66,3.21,5,5,0,0,1-.43,3.58l-5.48,8.65a2.75,2.75,0,0,0,.29,3.15l3.51,3.82a1.69,1.69,0,0,0,2.62-.07l6.31-7.59A3.31,3.31,0,0,1,242,219a13.49,13.49,0,0,0,2.05.33,2,2,0,0,1,1.87,2l-.47,8a1.21,1.21,0,0,0,1.75,1.3l7-2.58A4,4,0,0,0,256.53,225.51Zm-2.26-20.72c-8.22,3-13.68-2.91-12.19-13.26s9.36-21.2,17.58-24.23,13.68,2.9,12.19,13.26S262.5,201.76,254.27,204.79Z" style="fill:#fff"></path><path d="M246.64,231.39a1.72,1.72,0,0,1-1-.32,1.9,1.9,0,0,1-.68-1.69l.47-8a1.4,1.4,0,0,0-1.37-1.45,14.78,14.78,0,0,1-2.13-.34,2.74,2.74,0,0,0-2.6.73L233,227.9a2.26,2.26,0,0,1-3.46.09L226,224.17a3.29,3.29,0,0,1-.35-3.82l5.48-8.66a4.44,4.44,0,0,0,.37-3.13,25,25,0,0,1-.68-3.28,1.3,1.3,0,0,0-.53-.91,1.14,1.14,0,0,0-.94-.16l-5.78,1.36a1.81,1.81,0,0,1-2.33-2.13l1.37-9.56a4.82,4.82,0,0,1,2.37-3.27l6.48-3.22a5.2,5.2,0,0,0,2.16-2.46,57.66,57.66,0,0,1,2.3-5.43,3.37,3.37,0,0,0-.16-2.91l-2.64-4.11a3.66,3.66,0,0,1,.1-3.91l6.61-9.11a2.53,2.53,0,0,1,3.55-.54l3.42,2.58a1.9,1.9,0,0,0,2.32-.15,47,47,0,0,1,3.87-3.23,5.56,5.56,0,0,0,1.85-2.76l2-8.91a4.6,4.6,0,0,1,2.66-3l7-2.58a1.76,1.76,0,0,1,2.5,1.86l-.47,8a1.38,1.38,0,0,0,1.37,1.44,13.59,13.59,0,0,1,2.12.35,2.79,2.79,0,0,0,2.61-.74l6.31-7.59a2.23,2.23,0,0,1,3.45-.09l3.51,3.81a3.3,3.3,0,0,1,.35,3.83l-5.47,8.66a4.36,4.36,0,0,0-.37,3.12,25.52,25.52,0,0,1,.68,3.29,1.26,1.26,0,0,0,.52.9,1.14,1.14,0,0,0,.94.16l5.78-1.36a1.82,1.82,0,0,1,2.33,2.14l-1.37,9.55a4.81,4.81,0,0,1-2.37,3.28l-6.48,3.21a5.25,5.25,0,0,0-2.16,2.46c-.66,1.82-1.43,3.65-2.29,5.44a3.37,3.37,0,0,0,.15,2.91l2.65,4.1a3.68,3.68,0,0,1-.11,3.91l-6.61,9.11a2.49,2.49,0,0,1-3.54.54l-3.43-2.57a1.87,1.87,0,0,0-2.31.15,47.25,47.25,0,0,1-3.88,3.22,5.61,5.61,0,0,0-1.85,2.76l-2,8.91a4.65,4.65,0,0,1-2.65,3l-7,2.57A2.31,2.31,0,0,1,246.64,231.39Zm-5.36-13a3.8,3.8,0,0,1,.89.11,14.2,14.2,0,0,0,2,.32,2.5,2.5,0,0,1,2.38,2.61l-.47,8a.66.66,0,0,0,1,.74l7-2.57a3.49,3.49,0,0,0,1.95-2.23l2-8.91a6.8,6.8,0,0,1,2.27-3.42,46.54,46.54,0,0,0,3.78-3.14,3,3,0,0,1,3.74-.22l3.42,2.57a1.39,1.39,0,0,0,2-.3l6.61-9.11a2.57,2.57,0,0,0,.07-2.66l-2.64-4.1a4.5,4.5,0,0,1-.23-4,57.08,57.08,0,0,0,2.26-5.33,6.28,6.28,0,0,1,2.71-3.08l6.48-3.21a3.7,3.7,0,0,0,1.76-2.44l1.37-9.55a.86.86,0,0,0-.19-.77.88.88,0,0,0-.79-.13L284.81,169a2.29,2.29,0,0,1-1.83-.32,2.35,2.35,0,0,1-1-1.67,25.26,25.26,0,0,0-.66-3.14,5.59,5.59,0,0,1,.5-4l5.48-8.66a2.19,2.19,0,0,0-.22-2.47l-3.51-3.82a1.14,1.14,0,0,0-1.79.05l-6.31,7.59a3.86,3.86,0,0,1-3.72,1.11,12.52,12.52,0,0,0-2-.32,2.5,2.5,0,0,1-2.38-2.62l.47-8a.67.67,0,0,0-1-.74l-7,2.57a3.52,3.52,0,0,0-1.95,2.23l-2,8.91a6.67,6.67,0,0,1-2.28,3.42,44.78,44.78,0,0,0-3.77,3.14,3,3,0,0,1-3.74.23l-3.43-2.58a1.41,1.41,0,0,0-1.05-.26,1.39,1.39,0,0,0-.93.56l-6.61,9.11a2.59,2.59,0,0,0-.07,2.66l2.65,4.1a4.5,4.5,0,0,1,.22,4c-.85,1.76-1.61,3.56-2.26,5.33a6.24,6.24,0,0,1-2.71,3.08l-6.47,3.22a3.7,3.7,0,0,0-1.77,2.43l-1.37,9.55a.85.85,0,0,0,.2.78.86.86,0,0,0,.78.12l5.78-1.36a2.27,2.27,0,0,1,1.82.32,2.38,2.38,0,0,1,1,1.67,22.93,22.93,0,0,0,.65,3.14,5.52,5.52,0,0,1-.5,4l-5.48,8.66a2.19,2.19,0,0,0,.23,2.48l3.51,3.81a1.14,1.14,0,0,0,1.78,0l6.31-7.6A3.74,3.74,0,0,1,241.28,218.38Zm8.92-12.25a8.08,8.08,0,0,1-5.2-1.76c-3-2.45-4.3-7.16-3.47-12.92,1.51-10.52,9.56-21.59,17.94-24.68,3.68-1.35,7-1,9.47.94,3,2.46,4.29,7.17,3.47,12.92-1.52,10.52-9.56,21.59-17.94,24.68A12.39,12.39,0,0,1,250.2,206.13Zm13.53-39.06a11.32,11.32,0,0,0-3.88.75c-8,3-15.76,13.63-17.22,23.79-.77,5.36.35,9.7,3.07,11.9,2.1,1.7,5.08,2,8.38.75h0c8-3,15.76-13.63,17.22-23.78.77-5.36-.34-9.7-3.06-11.9A7,7,0,0,0,263.73,167.07Z" style="fill:#fff"></path></g></g><g id="freepik--gear--inject-3"><path d="M158.84,278.23l13.39-7.73a3.58,3.58,0,0,0,1.59-2.5l1.34-14.89a5,5,0,0,1,1.4-2.78,80.72,80.72,0,0,0,7.43-7.87,2.58,2.58,0,0,1,2.63-.75l8.59,3a2.09,2.09,0,0,0,2.41-.89l9.84-17a2.07,2.07,0,0,0-.43-2.53l-6.89-5.94a2.58,2.58,0,0,1-.67-2.66,80.63,80.63,0,0,0,3.1-10.37,5,5,0,0,1,1.71-2.59l12.23-8.61a3.62,3.62,0,0,0,1.36-2.63V176a1.09,1.09,0,0,0-.47-1h0l-10-5.82h0a1.14,1.14,0,0,0-1.05,0l-6.92,3.12a3,3,0,0,1,.22-1.63l7.94-16a1.8,1.8,0,0,0-.71-2.33l-6.56-3.79h0l-12.07-7a1.8,1.8,0,0,0-2.37.56L175.94,157a3.08,3.08,0,0,1-1.34,1l-.76-7.5a1.12,1.12,0,0,0-.5-.91h0l-10.05-5.84h0a1.09,1.09,0,0,0-1.09.09l-13.39,7.73a3.59,3.59,0,0,0-1.59,2.49l-1.35,14.9a5,5,0,0,1-1.39,2.78,80.72,80.72,0,0,0-7.43,7.87,2.55,2.55,0,0,1-2.63.74l-8.59-3a2.11,2.11,0,0,0-2.42.9l-9.84,17a2.11,2.11,0,0,0,.43,2.54l6.9,5.94a2.56,2.56,0,0,1,.67,2.65,81.11,81.11,0,0,0-3.1,10.37,5,5,0,0,1-1.71,2.6L104.53,228a3.63,3.63,0,0,0-1.37,2.63V246a1.12,1.12,0,0,0,.46,1h0l10.06,5.85h0a1.1,1.1,0,0,0,1,0l6.92-3.12a3,3,0,0,1-.22,1.63l-7.94,16a1.8,1.8,0,0,0,.71,2.33l10,5.8,0,0,8.62,5a1.8,1.8,0,0,0,2.37-.56l9.89-14.88a2.94,2.94,0,0,1,1.34-1l.76,7.5a1.09,1.09,0,0,0,.5.9h0l10,5.84h0A1.08,1.08,0,0,0,158.84,278.23ZM178,185c2.29,2.43,3.58,6.48,3.58,12.12,0,14.42-10.12,32-22.61,39.16-4.58,2.65-8.6,3.78-11.85,3.46-2.63-2.75-4.19-7.07-4.19-12.71,0-14.42,10.13-31.95,22.62-39.16C170.14,185.16,174.41,184.28,178,185Z" style="fill:#9F10D1"></path><g style="opacity:0.30000000000000004"><path d="M158.84,278.23l13.39-7.73a3.58,3.58,0,0,0,1.59-2.5l1.34-14.89a5,5,0,0,1,1.4-2.78,80.72,80.72,0,0,0,7.43-7.87,2.58,2.58,0,0,1,2.63-.75l8.59,3a2.09,2.09,0,0,0,2.41-.89l9.84-17a2.07,2.07,0,0,0-.43-2.53l-6.89-5.94a2.58,2.58,0,0,1-.67-2.66,80.63,80.63,0,0,0,3.1-10.37,5,5,0,0,1,1.71-2.59l12.23-8.61a3.62,3.62,0,0,0,1.36-2.63V176a1.09,1.09,0,0,0-.47-1h0l-10-5.82h0a1.14,1.14,0,0,0-1.05,0l-6.92,3.12a3,3,0,0,1,.22-1.63l7.94-16a1.8,1.8,0,0,0-.71-2.33l-6.56-3.79h0l-12.07-7a1.8,1.8,0,0,0-2.37.56L175.94,157a3.08,3.08,0,0,1-1.34,1l-.76-7.5a1.12,1.12,0,0,0-.5-.91h0l-10.05-5.84h0a1.09,1.09,0,0,0-1.09.09l-13.39,7.73a3.59,3.59,0,0,0-1.59,2.49l-1.35,14.9a5,5,0,0,1-1.39,2.78,80.72,80.72,0,0,0-7.43,7.87,2.55,2.55,0,0,1-2.63.74l-8.59-3a2.11,2.11,0,0,0-2.42.9l-9.84,17a2.11,2.11,0,0,0,.43,2.54l6.9,5.94a2.56,2.56,0,0,1,.67,2.65,81.11,81.11,0,0,0-3.1,10.37,5,5,0,0,1-1.71,2.6L104.53,228a3.63,3.63,0,0,0-1.37,2.63V246a1.12,1.12,0,0,0,.46,1h0l10.06,5.85h0a1.1,1.1,0,0,0,1,0l6.92-3.12a3,3,0,0,1-.22,1.63l-7.94,16a1.8,1.8,0,0,0,.71,2.33l10,5.8,0,0,8.62,5a1.8,1.8,0,0,0,2.37-.56l9.89-14.88a2.94,2.94,0,0,1,1.34-1l.76,7.5a1.09,1.09,0,0,0,.5.9h0l10,5.84h0A1.08,1.08,0,0,0,158.84,278.23ZM178,185c2.29,2.43,3.58,6.48,3.58,12.12,0,14.42-10.12,32-22.61,39.16-4.58,2.65-8.6,3.78-11.85,3.46-2.63-2.75-4.19-7.07-4.19-12.71,0-14.42,10.13-31.95,22.62-39.16C170.14,185.16,174.41,184.28,178,185Z"></path></g><g style="opacity:0.2"><path d="M124,275.42a1.84,1.84,0,0,1-.51-2.21l7.94-16a2.45,2.45,0,0,0,.24-.9l-10-5.83a2.42,2.42,0,0,1-.22.88l-7.93,16a1.79,1.79,0,0,0,.69,2.33Zm33.72,2.9h0a.71.71,0,0,1-.28-.24.73.73,0,0,1-.19-.36,1.42,1.42,0,0,1-.06-.31l-1.3-13a1.21,1.21,0,0,0-.08-.34,1.39,1.39,0,0,0-.4-.62,1.48,1.48,0,0,0-.38-.23l-.22-.07a1.7,1.7,0,0,0-.71,0,1.71,1.71,0,0,1-.3.05,26.66,26.66,0,0,1-6.15.61,3.39,3.39,0,0,0-1.25.25l.75,7.52a1.16,1.16,0,0,0,.51.9h0Zm-44.15-25.5a1.16,1.16,0,0,1-.4-.95V236.41a3.61,3.61,0,0,1,.72-2l-10-5.81a3.57,3.57,0,0,0-.73,2V246a1.11,1.11,0,0,0,.44,1Zm41.93-76.76a4.21,4.21,0,0,0,.39-1.31l1.34-14.89a2.72,2.72,0,0,1,.38-1.18l-10-5.82a3.46,3.46,0,0,0-.4,1.17l-1.33,14.89a4.35,4.35,0,0,1-.4,1.31Zm-32,26.9a2,2,0,0,1,.06-1.87L133.44,184a2.07,2.07,0,0,1,1-.82l-10-5.82a2,2,0,0,0-1,.82l-9.83,17a2.1,2.1,0,0,0,0,2Z"></path></g><path d="M173.82,268l1.34-14.89a5,5,0,0,1,1.4-2.78,80.72,80.72,0,0,0,7.43-7.87,2.58,2.58,0,0,1,2.63-.75l8.59,3a2.09,2.09,0,0,0,2.41-.89l9.84-17a2.07,2.07,0,0,0-.43-2.53l-6.89-5.94a2.58,2.58,0,0,1-.67-2.66,80.63,80.63,0,0,0,3.1-10.37,5,5,0,0,1,1.71-2.59l12.23-8.61a3.62,3.62,0,0,0,1.36-2.63V176a1,1,0,0,0-1.52-1l-11.91,5.37a1.42,1.42,0,0,1-2-.92,26.62,26.62,0,0,0-2.65-5.91,3.28,3.28,0,0,1-.18-2.88l7.94-16a1.8,1.8,0,0,0-.71-2.33l-8.61-5a1.82,1.82,0,0,0-2.38.55L186,162.78a3.29,3.29,0,0,1-2.59,1.28,26.68,26.68,0,0,0-6.45.66,1.41,1.41,0,0,1-1.78-1.26l-1.31-13a1,1,0,0,0-1.61-.83l-13.39,7.73a3.59,3.59,0,0,0-1.59,2.49l-1.34,14.9a5.09,5.09,0,0,1-1.39,2.78,79.62,79.62,0,0,0-7.44,7.87,2.55,2.55,0,0,1-2.63.74l-8.59-3a2.1,2.1,0,0,0-2.41.9l-9.84,17a2.1,2.1,0,0,0,.43,2.54l6.89,5.94a2.56,2.56,0,0,1,.67,2.65,81.11,81.11,0,0,0-3.1,10.37,5,5,0,0,1-1.71,2.6l-12.23,8.61a3.6,3.6,0,0,0-1.36,2.63v15.45a1,1,0,0,0,1.52,1l11.91-5.37a1.42,1.42,0,0,1,2,.91,26.62,26.62,0,0,0,2.65,5.91,3.3,3.3,0,0,1,.18,2.89l-7.94,16a1.8,1.8,0,0,0,.71,2.33l8.62,5a1.8,1.8,0,0,0,2.37-.56l9.89-14.88a3.3,3.3,0,0,1,2.59-1.29,27.16,27.16,0,0,0,6.45-.65,1.41,1.41,0,0,1,1.78,1.26l1.31,13a1,1,0,0,0,1.61.83l13.39-7.73A3.58,3.58,0,0,0,173.82,268Zm-8.28-28c-12.49,7.21-22.62,1.36-22.62-13.06s10.13-31.95,22.62-39.16,22.61-1.37,22.61,13.05S178,232.83,165.54,240Z" style="fill:#9F10D1"></path></g></g></g><g id="freepik--speech-bubble-2--inject-3"><g id="freepik--speech-bubble--inject-3"><g id="freepik--speech-bubble--inject-3"><path d="M360.94,94.78l2.69-5.07-2.17-6.26V79.62l6.64,3.83v3.83l-2.85,4.94a.43.43,0,0,1-.2.18h0Z" style="fill:#9F10D1"></path><path d="M360.94,94.78l2.69-5.07-2.17-6.26V79.62l6.64,3.83v3.83l-2.85,4.94a.43.43,0,0,1-.2.18h0Z" style="opacity:0.2"></path><path d="M345.1,49.18a4.41,4.41,0,0,1,2-3.45l1.61-.93a4.37,4.37,0,0,1,4,0l24.84,14.36a4.41,4.41,0,0,1,2,3.45V89.93a4.41,4.41,0,0,1-2,3.45l-1.62.93a4.37,4.37,0,0,1-4,0l-8-4.61-2.84,4.93a.43.43,0,0,1-.77-.08l-3-8.68L347.08,80a4.43,4.43,0,0,1-2-3.45Z" style="fill:#9F10D1"></path><path d="M379.51,89.93a4.41,4.41,0,0,1-2,3.45l-1.62.93a4.47,4.47,0,0,1-3.64.16c.94.36,1.65-.17,1.65-1.31V65.84a4,4,0,0,0-.58-2l5.59-3.23a4,4,0,0,1,.59,2Z" style="opacity:0.2"></path><path d="M345.16,48.61c.23-.84,1-1.11,1.92-.58l24.84,14.36a4,4,0,0,1,1.4,1.49l5.6-3.23a4,4,0,0,0-1.4-1.48L352.69,44.8a4.43,4.43,0,0,0-4,0l-1.63.94A4.4,4.4,0,0,0,345.16,48.61Z" style="fill:#fff;opacity:0.30000000000000004"></path></g><g id="freepik--Like--inject-3"><path d="M351.07,70a4.09,4.09,0,0,0,1.44,2.58,3.17,3.17,0,0,0-.21,1.24,3.94,3.94,0,0,0,1.9,3l8.57,5V70.58s-2.36-5.37-2.57-6.15a24.48,24.48,0,0,1,0-4,2,2,0,0,0-2.3-1,1,1,0,0,0-.5.56,6.17,6.17,0,0,0-.52,1.78,9.11,9.11,0,0,0,.18,3.19l-5.19-3a1,1,0,0,0-1-.14,1.24,1.24,0,0,0-.54,1.12,3.83,3.83,0,0,0,.83,2.23s-1-.31-1,1.08a3.63,3.63,0,0,0,1.27,2.54S351.07,69,351.07,70Z" style="fill:#fafafa"></path><path d="M367.75,73.61V85.68c0,.27-.19.38-.42.24l-2.89-1.66a.94.94,0,0,1-.42-.73V71.47c0-.27.19-.38.42-.25l2.9,1.67A.88.88,0,0,1,367.75,73.61Z" style="fill:#fafafa"></path></g></g></g><g id="freepik--speech-bubble-1--inject-3"><g id="freepik--Alert--inject-3"><g id="freepik--Bubble--inject-3"><path d="M90.55,36.29C83.75,32.43,74.4,33,64.08,39,43.3,51,26.46,80.15,26.46,104.14c0,12,4.21,20.4,11,24.33,2.83,1.64,10,5.76,12.85,7.39,6.8,3.92,16.19,3.35,26.57-2.64,20.77-12,37.61-41.16,37.61-65.15,0-12-4.19-20.36-11-24.31C100.7,42.11,93.43,37.93,90.55,36.29Z" style="fill:#9F10D1"></path><path d="M90.55,36.29C83.75,32.43,74.4,33,64.08,39,43.3,51,26.46,80.15,26.46,104.14c0,12,4.21,20.4,11,24.33,2.83,1.64,10,5.76,12.85,7.39,6.8,3.92,16.19,3.35,26.57-2.64,20.77-12,37.61-41.16,37.61-65.15,0-12-4.19-20.36-11-24.31C100.7,42.11,93.43,37.93,90.55,36.29Z" style="opacity:0.15"></path><ellipse cx="76.89" cy="89.79" rx="53.2" ry="30.71" transform="translate(-39.32 111.48) rotate(-60)" style="fill:#9F10D1"></ellipse><path d="M101.29,97.78s1.71,14.92,18.24,18.6c1.27.28,1.21,1.71.14,2.47-2.06,1.45-9.46,4.58-17.71,2.55-11.49-2.84-14.76-8-14.76-8Z" style="fill:#9F10D1"></path></g><g id="freepik--alert--inject-3"><path d="M73.49,65.42,55.71,116.74c-1.85,5.35.64,7.41,5.54,4.58l31.21-18a10.28,10.28,0,0,0,3.76-14L82,64.61C79.17,59.71,75.34,60.07,73.49,65.42Z" style="fill:#fafafa"></path><path d="M78.78,96.1l-2.71,1.56a.58.58,0,0,1-.95-.51L74,76.84a1.83,1.83,0,0,1,.84-1.54l5.13-3c.5-.28.87,0,.84.52l-1.1,21.7A2.12,2.12,0,0,1,78.78,96.1Z" style="fill:#455a64"></path><path d="M77.43,107c-1.73,1-2.77-.3-2.77-2.09a6.55,6.55,0,0,1,2.77-5.29c1.73-1,2.76.29,2.76,2.09A6.54,6.54,0,0,1,77.43,107Z" style="fill:#455a64"></path></g></g></g></svg>
