<svg xmlns="http://www.w3.org/2000/svg" viewBox="0 0 500 500"><g id="freepik--Floor--inject-113"><path d="M418.7,243.3c-93.77-54.14-245.31-54.14-338.47,0s-92.67,141.92,1.1,196.06,245.31,54.14,338.48,0S512.47,297.44,418.7,243.3Z" style="fill:#f5f5f5"></path></g><g id="freepik--Window--inject-113"><path d="M451.56,311.19l.29-163.13a12.58,12.58,0,0,0-5.7-9.88L243.86,21.7a4.05,4.05,0,0,0-4-.42l6-3.46h0c1.05-.66,2.52-.61,4.16.34L452.26,134.64a12.58,12.58,0,0,1,5.7,9.88l-.29,163.13a4.09,4.09,0,0,1-1.52,3.57h0a3.37,3.37,0,0,1-.32.19l-5.9,3.43A4,4,0,0,0,451.56,311.19Z" style="fill:#7B0EAD"></path><path d="M245.81,17.82h0c1.05-.66,2.52-.61,4.16.34L452.26,134.64a11.93,11.93,0,0,1,4.36,4.87L450.51,143a12,12,0,0,0-4.36-4.86L243.86,21.7a4.05,4.05,0,0,0-4-.42Z" style="fill:#fff;opacity:0.30000000000000004"></path><path d="M458,144.52l-.29,163.13a4.09,4.09,0,0,1-1.52,3.57h0a3.37,3.37,0,0,1-.32.19l-5.9,3.43a4,4,0,0,0,1.64-3.65l.29-163.13a11.2,11.2,0,0,0-1.34-5l6.11-3.53A11.26,11.26,0,0,1,458,144.52Z" style="fill:#fff;opacity:0.2"></path><path d="M451.83,155.47l-.27,155.72a4,4,0,0,1-1.64,3.65l-.09.06,0,0a4.1,4.1,0,0,1-4-.45L243.53,198a12.59,12.59,0,0,1-5.7-9.88l.27-155.92Z" style="fill:#7B0EAD"></path><path d="M451.83,155.47l-.27,155.72a4,4,0,0,1-1.64,3.65l-.09.06,0,0a4.1,4.1,0,0,1-4-.45L243.53,198a12.59,12.59,0,0,1-5.7-9.88l.27-155.92Z" style="opacity:0.2"></path><polygon points="263.27 193.14 263.49 63.73 437.48 163.75 437.25 292.98 263.27 193.14" style="fill:#fff;opacity:0.4"></polygon><path d="M238.12,25a4,4,0,0,1,1.64-3.64l0,0,0,0a4.05,4.05,0,0,1,4,.42L446.15,138.18a12.58,12.58,0,0,1,5.7,9.88l0,7.41L238.1,32.18Z" style="fill:#7B0EAD"></path><path d="M238.12,25a4,4,0,0,1,1.64-3.64l0,0,0,0a4.05,4.05,0,0,1,4,.42L446.15,138.18a12.58,12.58,0,0,1,5.7,9.88l0,7.41L238.1,32.18Z" style="opacity:0.30000000000000004"></path><g style="opacity:0.39"><path d="M253.27,32.85c-.87-.5-1.57-.1-1.57.89a3.43,3.43,0,0,0,1.56,2.7c.86.49,1.56.09,1.56-.9A3.43,3.43,0,0,0,253.27,32.85Z" style="fill:#fff"></path><path d="M249,30.39c-.86-.5-1.56-.1-1.56.89A3.45,3.45,0,0,0,249,34c.87.49,1.57.09,1.57-.9A3.42,3.42,0,0,0,249,30.39Z" style="fill:#fff"></path><path d="M244.74,27.93c-.86-.5-1.56-.1-1.56.89a3.42,3.42,0,0,0,1.55,2.7c.86.49,1.57.09,1.57-.9A3.44,3.44,0,0,0,244.74,27.93Z" style="fill:#fff"></path></g><path d="M305.35,138.6l.9.52,0,7.21-4.41-2.55c-2.82-1.63-3.83-3.05-4.73-6.51l-2.47-9.48L281.06,120l-2.51,6.61c-.92,2.41-1.88,2.69-4.71,1.06l-4.47-2.58,0-7.21.91.52c1,.56,1.42.56,1.76-.41l12-30.6,7.75,4.48,11.76,44.33A3.27,3.27,0,0,0,305.35,138.6Zm-22.58-24.69L293,119.79l-3.42-13.55c-.72-3-1.52-7.56-1.56-7.8l-.11-.07c-.05.19-.87,3.86-1.61,6l-3.48,9.56" style="fill:#fff"></path><path d="M341,159.43l2.26,1.3,0,7L336.77,164a6.67,6.67,0,0,1-3.66-5.76c0-.84.06-1.36.06-1.39l-.11-.07c-.11.23-2.22,4.58-8.72.82-5.15-3-9.83-9.38-9.81-16,0-10.4,12.47-4.06,17.16-1.35l.91.52v-.26c0-4.74-1.63-7.44-5.3-9.56-1.3-.75-3.85-1.83-3.85,0v1.76l-6.66-3.85v-3.51c0-6.17,7.59-2.45,10.58-.72,9.61,5.55,12.42,13,12.4,20.37l0,12.34A2.41,2.41,0,0,0,341,159.43Zm-8.29-12.2v-.78l-1.24-.72c-3.73-2.16-9.67-5-9.68-.39a8.31,8.31,0,0,0,4.34,6.81c3.84,2.21,6.57-.9,6.58-4.92" style="fill:#fff"></path><polygon points="307.33 122.85 307.33 125.25 306.44 124.74 306.13 124.55 305.24 124.04 305.25 121.65 306.13 122.16 306.45 122.34 307.33 122.85" style="fill:#7B0EAD"></polygon><polygon points="306.19 101.49 306.51 101.67 306.45 122.34 306.13 122.16 306.19 101.49" style="fill:#fff"></polygon><polygon points="306.07 145.21 306.13 124.55 306.44 124.73 306.38 145.4 306.07 145.21" style="fill:#fff"></polygon><polygon points="288.84 135.27 288.84 136.29 288.84 136.65 288.83 137.66 286.75 136.46 286.75 135.44 286.75 135.09 286.76 134.06 288.84 135.27" style="fill:#7B0EAD"></polygon><polygon points="307.27 145.91 307.26 148.3 305.18 147.1 305.18 146.08 305.18 145.72 305.18 144.7 306.07 145.21 306.38 145.4 307.27 145.91" style="fill:#7B0EAD"></polygon><polygon points="288.84 136.65 288.84 136.29 305.18 145.72 305.18 146.08 288.84 136.65" style="fill:#fff"></polygon><polygon points="270.53 79.88 270.54 79.52 286.88 88.96 286.88 89.32 270.53 79.88" style="fill:#fff"></polygon><polygon points="270.41 124.63 270.4 125.65 270.4 126 270.4 127.02 268.32 125.82 268.32 123.42 269.21 123.94 269.52 124.11 270.41 124.63" style="fill:#7B0EAD"></polygon><polygon points="270.4 126 270.4 125.65 286.75 135.09 286.75 135.44 270.4 126" style="fill:#fff"></polygon><polygon points="270.54 78.51 270.54 79.52 270.53 79.88 270.53 80.9 269.65 80.39 269.34 80.21 268.45 79.7 268.45 77.31 270.54 78.51" style="fill:#7B0EAD"></polygon><polygon points="269.28 100.88 269.34 80.21 269.65 80.39 269.59 101.06 269.28 100.88" style="fill:#fff"></polygon><polygon points="307.4 99.79 307.39 102.18 306.51 101.67 306.19 101.49 305.31 100.98 305.31 99.96 305.31 99.6 305.31 98.59 307.4 99.79" style="fill:#7B0EAD"></polygon><path d="M300.4,159.66c2.3,1.33,3.44,3.52,3.43,6.59a18,18,0,0,1-.77,5q-.76,2.58-2.11,6.17c-1,2.63-1.62,4.25-1.91,4.84q-2.09,5.23-3.39,8.94a18.84,18.84,0,0,0-1.31,5.39,9.17,9.17,0,0,0,.68,3.82,5.19,5.19,0,0,0,2.19,2.36,1.75,1.75,0,0,1,.63.68,1.89,1.89,0,0,1,.27.92.59.59,0,0,1-.28.56.59.59,0,0,1-.62,0,9,9,0,0,1-3.55-3.84,12.35,12.35,0,0,1-1.17-5.53,18.91,18.91,0,0,1,1.35-5.75q1.35-3.79,3.52-9.17l.17-.45-9.12-5.27a26.91,26.91,0,0,1-6.48,6.84,5.8,5.8,0,0,1-6.65.1,13.49,13.49,0,0,1-4.65-4.56,11,11,0,0,1-1.88-6,6,6,0,0,1,.93-3.48,3.66,3.66,0,0,1,2.49-1.59,4.86,4.86,0,0,1,3.23.73,8.24,8.24,0,0,1,2,1.64,1.87,1.87,0,0,1,.51,1.23.64.64,0,0,1-.27.58.61.61,0,0,1-.64-.06,3.77,3.77,0,0,1-.66-.58,4.91,4.91,0,0,0-.94-.73,3.24,3.24,0,0,0-2.32-.48,2.74,2.74,0,0,0-1.81,1.26,4.43,4.43,0,0,0-.71,2.52,7.5,7.5,0,0,0,1.38,4.16,10.11,10.11,0,0,0,3.35,3.23,4.66,4.66,0,0,0,5.46-.2,27.71,27.71,0,0,0,5.56-5.84l-2.11-1.21a1.92,1.92,0,0,1-.67-.71,1.76,1.76,0,0,1-.28-.88.61.61,0,0,1,.28-.6.63.63,0,0,1,.67,0l3.19,1.84c.43-.6,1.06-1.53,1.86-2.78l1.3-1.93c1.42-2.16,2.5-3.77,3.25-4.86A15.07,15.07,0,0,1,296,160a3.82,3.82,0,0,1,4.45-.35Zm.92,10.2a14.42,14.42,0,0,0,.74-4.38c0-1.81-.55-3-1.67-3.69a2.29,2.29,0,0,0-1.58-.29,2.79,2.79,0,0,0-1.4.64,13.89,13.89,0,0,0-2.13,2.52c-.78,1.08-1.82,2.66-3.15,4.7l-2.69,4,8.74,5.05,1.05-2.71q1.35-3.54,2.09-5.83" style="fill:#fff"></path><path d="M323.42,197.84a1.89,1.89,0,0,1,.56,1.26,1.23,1.23,0,0,1-.09.39l0,.13a40.43,40.43,0,0,1-2.19,3.83,6,6,0,0,1-2.45,2.19,3.29,3.29,0,0,1-3.23-.31,5.65,5.65,0,0,1-2.3-2.46,7.73,7.73,0,0,1-.79-3.48q-2.59,2.66-5.39,1.05a6.34,6.34,0,0,1-2.62-3,10.61,10.61,0,0,1-.9-4.39,19.17,19.17,0,0,1,1.38-6.88,12.25,12.25,0,0,1,3.57-5.3,3.77,3.77,0,0,1,4.62-.38,8.56,8.56,0,0,1,3.91,4.88l.74-1.8a.41.41,0,0,1,.32-.29.91.91,0,0,1,.54.14,1.66,1.66,0,0,1,.75.91,1.2,1.2,0,0,1,.07.95l-2.17,5.39-.48,1.26c-.88,2.31-1.51,4.08-1.92,5.34a10.77,10.77,0,0,0-.61,3.16,4.35,4.35,0,0,0,.3,1.76,2.33,2.33,0,0,0,1,1.06,2.29,2.29,0,0,0,3.18-.62,25,25,0,0,0,3-4.83l.05-.11a.53.53,0,0,1,.82-.18A2.55,2.55,0,0,1,323.42,197.84Zm-10.48-2.68q1.05-1.92,2.31-4.82l1-2.57a6.82,6.82,0,0,0-.81-3.12,5.13,5.13,0,0,0-1.94-2.09,2.84,2.84,0,0,0-3.62.74,13.27,13.27,0,0,0-2.93,4.83,17.49,17.49,0,0,0-1.2,5.62,9.29,9.29,0,0,0,.39,2.9,2.88,2.88,0,0,0,1.28,1.69,2.55,2.55,0,0,0,3-.17,9.25,9.25,0,0,0,2.46-3" style="fill:#fff"></path><polygon points="252.63 86.04 252.6 94.16 252.63 86.04 252.63 86.04" style="fill:#fff"></polygon><polygon points="252.6 97.29 245.52 93.2 245.52 93.2 252.6 97.29 252.57 105.41 252.57 105.41 252.6 97.29" style="fill:#fff"></polygon><rect x="249.03" y="102.4" height="8.17" transform="translate(32.29 268.91) rotate(-60)" style="fill:#fff"></rect><rect x="248.91" y="143.3" height="8.17" transform="translate(-3.18 289.26) rotate(-60)" style="fill:#fff"></rect><polygon points="245.6 67.59 252.67 71.67 245.6 67.59 245.6 67.59" style="fill:#fff"></polygon><polygon points="248.58 72.43 252.66 74.79 252.64 82.91 252.66 74.79 248.58 72.43" style="fill:#fff"></polygon><polygon points="245.56 78.83 252.64 82.91 245.56 78.83 245.56 78.83" style="fill:#fff"></polygon><polygon points="245.53 90.08 252.6 94.16 245.53 90.08 245.53 90.08" style="fill:#fff"></polygon><polygon points="248.33 158.32 252.42 160.68 252.39 168.8 252.39 168.8 252.42 160.68 248.33 158.32" style="fill:#fff"></polygon><rect x="248.98" y="120.81" height="8.17" transform="translate(16.32 278.07) rotate(-60)" style="fill:#fff"></rect><rect x="248.94" y="132.06" height="8.17" transform="translate(6.57 283.67) rotate(-60)" style="fill:#fff"></rect><polygon points="245.56 81.95 252.63 86.04 252.6 94.16 245.53 90.08 245.56 81.95" style="fill:#fff"></polygon><polygon points="252.57 105.41 245.5 101.33 245.52 93.2 252.6 97.29 252.57 105.41" style="fill:#fff"></polygon><polygon points="245.41 134.1 252.48 138.19 252.46 146.31 245.38 142.23 245.41 134.1" style="fill:#fff"></polygon><polygon points="252.43 157.55 245.35 153.47 245.38 145.35 252.45 149.43 252.43 157.55" style="fill:#fff"></polygon><polygon points="245.44 122.85 252.51 126.94 252.49 135.06 245.42 130.98 245.44 122.85" style="fill:#fff"></polygon><path d="M243,177.27,254.64,184l.16-58.35-11.63-6.72Zm2.37-31.92,7.07,4.08h0l0,8.12-7.07-4.08,0-8.12Zm7.11-10.29L245.42,131l0-8.13h0l7.07,4.09h0Zm0,11.25-7.07-4.08,0-8.13h0l7.07,4.09h0Zm-.07,22.49h0l-7.07-4.08,0-8.13,3,1.73,4.09,2.36,0,8.12Zm-7.1,7.16,0-8.12,7.07,4.08,0,8.13Z" style="fill:#7B0EAD"></path><path d="M243.18,113.88l11.64,6.71L255,62.24l-11.63-6.71Zm9.49-42.21-7.07-4.08h0l0-8.13,7.07,4.09Zm0,11.24-7.08-4.08h0l0-8.12,3,1.72,4.08,2.36Zm0,11.25-7.07-4.08h0l0-8.13L252.63,86h0Zm0,11.25h0l-7.07-4.08,0-8.13h0l7.08,4.09Zm0,11.24-7.07-4.08,0-8.12h0l7.07,4.08h0Z" style="fill:#7B0EAD"></path><path d="M243,177.27,254.64,184l.16-58.35-11.63-6.72Zm2.37-31.92,7.07,4.08h0l0,8.12-7.07-4.08,0-8.12Zm7.11-10.29L245.42,131l0-8.13h0l7.07,4.09h0Zm0,11.25-7.07-4.08,0-8.13h0l7.07,4.09h0Zm-.07,22.49h0l-7.07-4.08,0-8.13,3,1.73,4.09,2.36,0,8.12Zm-7.1,7.16,0-8.12,7.07,4.08,0,8.13Z" style="fill:#fff;opacity:0.30000000000000004"></path><path d="M243.18,113.88l11.64,6.71L255,62.24l-11.63-6.71Zm9.49-42.21-7.07-4.08h0l0-8.13,7.07,4.09Zm0,11.24-7.08-4.08h0l0-8.12,3,1.72,4.08,2.36Zm0,11.25-7.07-4.08h0l0-8.13L252.63,86h0Zm0,11.25h0l-7.07-4.08,0-8.13h0l7.08,4.09Zm0,11.24-7.07-4.08,0-8.12h0l7.07,4.08h0Z" style="fill:#fff;opacity:0.30000000000000004"></path><polygon points="245.56 78.83 245.59 70.71 248.58 72.43 252.66 74.79 252.64 82.91 245.56 78.83 245.56 78.83" style="fill:#fff"></polygon><polygon points="243.35 55.53 243.36 50.99 254.99 57.71 254.98 62.24 243.35 55.53 243.35 55.53" style="fill:#fff"></polygon><polygon points="245.6 67.59 245.62 59.46 252.69 63.55 252.67 71.67 245.6 67.59 245.6 67.59" style="fill:#fff"></polygon><polygon points="245.49 104.45 245.49 104.45 252.56 108.53 252.56 108.53 252.54 116.66 245.47 112.57 245.49 104.45" style="fill:#fff"></polygon><polygon points="245.32 164.72 245.34 156.59 248.33 158.32 252.42 160.68 252.39 168.8 252.39 168.8 245.32 164.72" style="fill:#fff"></polygon><polygon points="252.38 171.92 252.36 180.05 245.29 175.96 245.31 167.84 252.38 171.92" style="fill:#fff"></polygon><polygon points="288.97 89.15 288.97 90.17 288.97 90.52 288.96 91.55 286.88 90.34 286.88 89.32 286.88 88.96 286.89 87.95 288.97 89.15" style="fill:#7B0EAD"></polygon><polygon points="288.97 90.52 288.97 90.17 305.31 99.6 305.31 99.96 288.97 90.52" style="fill:#fff"></polygon><polygon points="269.21 123.94 269.27 103.28 269.58 103.45 269.52 124.11 269.21 123.94" style="fill:#fff"></polygon><polygon points="270.47 101.57 270.47 103.97 269.58 103.45 269.27 103.28 268.38 102.76 268.39 100.37 269.28 100.88 269.59 101.06 270.47 101.57" style="fill:#7B0EAD"></polygon></g><g id="freepik--tool-2--inject-113"><path d="M437.6,212.1,361.27,168a1.52,1.52,0,0,0-1.54-.15h0L354,172h0a1.55,1.55,0,0,1,1.53.16l76.33,44.07a4.8,4.8,0,0,1,2.17,3.77l-.29,104.27a1.58,1.58,0,0,1-.61,1.38h0l5.78-4.14h0a1.63,1.63,0,0,0,.55-1.33l.29-104.27A4.77,4.77,0,0,0,437.6,212.1Z" style="fill:#7B0EAD"></path><path d="M433.76,324.24,434.05,220a4.8,4.8,0,0,0-2.17-3.77l-76.33-44.07A1.55,1.55,0,0,0,354,172a1.53,1.53,0,0,0-.65,1.41l-.3,104.28a4.83,4.83,0,0,0,2.17,3.77l76.33,44.06a1.51,1.51,0,0,0,1.58.13A1.58,1.58,0,0,0,433.76,324.24Z" style="fill:#7B0EAD"></path><g style="opacity:0.30000000000000004"><path d="M431.88,216.19a4.83,4.83,0,0,1,2.17,3.77l0,6.52-46.93-27.1,0-9Z"></path></g><polygon points="428.38 287.04 428.38 287.04 427.87 286.15 426.9 286.71 427.87 286.15 428.38 287.04" style="fill:none"></polygon><polygon points="428.45 264.26 428.45 264.26 427.93 263.36 426.97 263.91 427.93 263.36 428.45 264.26" style="fill:none"></polygon><polygon points="426.03 253.04 425.51 253.34 426.03 253.04 426.03 253.04" style="fill:none"></polygon><polygon points="385.46 254.74 383.99 252.19 384.5 251.9 383.99 252.19 385.46 254.74 385.46 254.74" style="fill:none"></polygon><polygon points="426.21 312.92 425.87 312.31 425.35 312.61 425.87 312.31 426.21 312.92" style="fill:none"></polygon><polygon points="426.9 286.71 425.94 285.04 425.42 285.33 425.94 285.04 426.9 286.71" style="fill:none"></polygon><polygon points="384.48 261.1 385.44 262.77 386.4 262.21 386.92 263.1 386.92 263.1 386.4 262.21 385.44 262.77 384.48 261.1 383.96 261.39 383.96 261.39 384.48 261.1" style="fill:none"></polygon><rect x="384.28" y="238.16" height="0.6" style="fill:none"></rect><polygon points="386.84 290.38 386.84 290.38 386.32 289.48 385.36 290.04 386.32 289.48 386.84 290.38" style="fill:none"></polygon><polygon points="383.88 288.67 384.4 288.37 384.4 288.37 383.88 288.67 384.82 290.29 383.88 288.67" style="fill:none"></polygon><polygon points="427.79 313.42 428.3 314.31 427.79 313.42 426.82 313.98 426.82 313.98 427.79 313.42" style="fill:none"></polygon><polygon points="425.49 262.55 425.49 262.55 426.01 262.25 425.49 262.55" style="fill:none"></polygon><polygon points="427.99 242.22 427.03 242.78 427.99 242.22 427.99 242.22" style="fill:none"></polygon><polygon points="361.9 245.8 356.54 242.71 356.52 249.22 361.88 252.31 361.9 245.8" style="fill:#fff"></polygon><polygon points="361.92 236.59 356.56 233.5 356.55 240.01 361.9 243.1 361.92 236.59" style="fill:#fff"></polygon><polygon points="382.89 191.94 356.72 176.83 356.71 179.82 382.88 194.93 382.89 191.94" style="fill:#fff"></polygon><polygon points="428.51 243.11 427.99 242.22 427.03 242.78 426.07 241.12 425.55 241.4 427.02 243.96 428.51 243.11" style="fill:#fff"></polygon><polygon points="361.96 223.02 356.6 219.92 356.58 226.43 361.94 229.53 361.96 223.02" style="fill:#fff"></polygon><polygon points="361.99 213.81 356.63 210.72 356.61 217.22 361.97 220.32 361.99 213.81" style="fill:#fff"></polygon><polygon points="356.66 198.78 356.64 205.29 423.43 243.84 423.44 237.33 356.66 198.78" style="fill:#7B0EAD"></polygon><path d="M423.43,243.84l7.18,4.15,0-6.51-7.19-4.15Zm2.64-2.73,1,1.66,1-.55h0l.52.89L427,244l-1.47-2.55Z" style="fill:#7B0EAD"></path><polygon points="356.69 189.08 356.67 195.59 423.45 234.15 423.47 227.64 356.69 189.08" style="fill:#7B0EAD"></polygon><polygon points="428.53 233.41 428.02 232.52 427.05 233.07 426.1 231.41 425.58 231.71 427.05 234.25 428.53 233.41" style="fill:#fff"></polygon><path d="M423.45,234.15l7.19,4.14v-6.51l-7.18-4.14Zm2.64-2.74,1,1.66,1-.55.51.89-1.48.84-1.47-2.54Z" style="fill:#7B0EAD"></path><polygon points="387.01 231.11 386.49 230.22 385.53 230.77 384.57 229.1 384.05 229.4 385.52 231.95 387.01 231.11" style="fill:#fff"></polygon><path d="M389.11,236l0-6.51L382,225.33l0,6.51Zm-4.54-6.88,1,1.66,1-.55.52.89-1.48.84-1.48-2.55Z" style="fill:#7B0EAD"></path><polygon points="364.67 231.1 381.9 241.05 381.9 241.05 381.9 241.05 381.92 234.54 364.69 224.59 364.67 231.1" style="fill:#7B0EAD"></polygon><polygon points="381.95 225.33 364.71 215.38 364.7 221.89 381.93 231.84 381.95 225.33" style="fill:#7B0EAD"></polygon><polygon points="385.5 241.16 386.98 240.32 386.47 239.43 385.5 239.97 384.54 238.31 384.02 238.61 385.5 241.16" style="fill:#fff"></polygon><path d="M381.9,241.05l7.18,4.15,0-6.51-7.18-4.15h0l0,6.51Zm2.64-2.74h0l1,1.66,1-.55.51.9-1.48.84L384,238.61h0Z" style="fill:#7B0EAD"></path><path d="M423.37,265l7.18,4.15,0-6.51-7.19-4.15Zm2.12-2.44.52-.3,1,1.66,1-.55.52.9h0l-1.49.84-1.47-2.55Z" style="fill:#7B0EAD"></path><path d="M423.33,278.57l7.18,4.14,0-6.51-7.18-4.14Zm2.64-2.73,1,1.66,1-.55.52.88-1.49.85-1.47-2.55Z" style="fill:#7B0EAD"></path><path d="M423.3,287.77l7.18,4.15,0-6.51-7.18-4.15Zm2.64-2.73,1,1.67,1-.56.51.89h0l-1.48.85-1.48-2.56Z" style="fill:#7B0EAD"></path><polygon points="406.09 271.32 406.07 277.83 423.3 287.77 423.3 287.77 423.32 281.26 406.09 271.32" style="fill:#7B0EAD"></polygon><polygon points="406.11 262.11 406.1 268.62 423.33 278.57 423.35 272.06 406.11 262.11" style="fill:#7B0EAD"></polygon><polygon points="406.15 248.53 406.13 255.04 423.37 264.99 423.38 258.48 406.15 248.53" style="fill:#7B0EAD"></polygon><polygon points="406.18 239.32 406.16 245.83 423.39 255.78 423.41 249.27 406.18 239.32" style="fill:#7B0EAD"></polygon><polygon points="428.47 255.05 427.96 254.16 426.99 254.71 426.03 253.04 425.51 253.34 426.99 255.89 428.47 255.05" style="fill:#fff"></polygon><path d="M423.41,249.27l0,6.51,7.18,4.15,0-6.51-7.18-4.15ZM426,253h0l1,1.67,1-.56.51.9-1.48.84-1.47-2.55Z" style="fill:#7B0EAD"></path><polygon points="398.05 250.37 403.41 253.47 403.42 246.96 398.07 243.86 398.05 250.37" style="fill:#fff"></polygon><polygon points="403.45 237.75 398.09 234.65 398.07 241.16 403.43 244.26 403.45 237.75" style="fill:#fff"></polygon><polygon points="426.96 265.1 428.45 264.26 428.45 264.26 427.93 263.36 426.97 263.91 426.01 262.25 425.49 262.55 425.49 262.55 426.96 265.1" style="fill:#fff"></polygon><polygon points="364.63 244.68 381.86 254.63 381.86 254.63 381.86 254.63 381.88 248.12 364.65 238.17 364.63 244.68" style="fill:#7B0EAD"></polygon><path d="M381.86,254.63l7.19,4.14v-6.51l-7.18-4.14,0,6.51Zm2.65-2.73.95,1.66,1-.55.51.88-1.48.85h0L384,252.19Z" style="fill:#7B0EAD"></path><polygon points="385.46 254.74 385.46 254.74 386.94 253.89 386.43 253.01 385.46 253.56 384.5 251.9 383.99 252.19 385.46 254.74" style="fill:#fff"></polygon><polygon points="385.44 262.77 384.48 261.1 383.96 261.39 385.43 263.95 386.92 263.1 386.4 262.21 385.44 262.77" style="fill:#fff"></polygon><path d="M381.84,263.84h0L389,268l0-6.51-7.18-4.14h0Zm2.64-2.74,1,1.67,1-.56.52.89h0l-1.49.85L384,261.39h0Z" style="fill:#7B0EAD"></path><polygon points="371.2 270.66 371.22 264.15 365.86 261.06 365.84 267.57 371.2 270.66" style="fill:#fff"></polygon><polygon points="364.61 253.89 381.84 263.84 381.84 263.84 381.86 257.33 381.86 257.33 364.62 247.38 364.61 253.89" style="fill:#7B0EAD"></polygon><polygon points="381.78 284.6 381.78 284.6 356.46 269.98 356.44 276.49 381.76 291.11 381.78 284.6 381.78 284.6" style="fill:#7B0EAD"></polygon><polygon points="384.82 290.29 385.36 291.22 386.84 290.38 386.32 289.48 385.36 290.04 384.4 288.37 383.88 288.67 384.82 290.29" style="fill:#fff"></polygon><path d="M381.78,284.6l0,6.51h0l7.18,4.15,0-6.51-7.18-4.15Zm2.62,3.77h0l1,1.67,1-.56.51.89h0l-1.48.85-.54-.93-.94-1.62Z" style="fill:#7B0EAD"></path><polygon points="423.24 308.54 397.92 293.92 397.91 300.43 423.22 315.05 423.22 315.05 423.22 315.05 423.24 308.54" style="fill:#7B0EAD"></polygon><polygon points="356.66 198.78 356.64 205.29 423.43 243.84 423.44 237.33 356.66 198.78" style="opacity:0.30000000000000004"></polygon><polygon points="356.69 189.08 356.67 195.59 423.45 234.15 423.47 227.64 356.69 189.08" style="opacity:0.30000000000000004"></polygon><polygon points="364.67 231.1 381.9 241.05 381.9 241.05 381.9 241.05 381.92 234.54 364.69 224.59 364.67 231.1" style="opacity:0.30000000000000004"></polygon><polygon points="381.95 225.33 364.71 215.38 364.7 221.89 381.93 231.84 381.95 225.33" style="opacity:0.30000000000000004"></polygon><polygon points="406.09 271.32 406.07 277.83 423.3 287.77 423.3 287.77 423.32 281.26 406.09 271.32" style="opacity:0.30000000000000004"></polygon><polygon points="406.11 262.11 406.1 268.62 423.33 278.57 423.35 272.06 406.11 262.11" style="opacity:0.30000000000000004"></polygon><polygon points="406.15 248.53 406.13 255.04 423.37 264.99 423.38 258.48 406.15 248.53" style="opacity:0.30000000000000004"></polygon><polygon points="406.18 239.32 406.16 245.83 423.39 255.78 423.41 249.27 406.18 239.32" style="opacity:0.30000000000000004"></polygon><polygon points="364.63 244.68 381.86 254.63 381.86 254.63 381.86 254.63 381.88 248.12 364.65 238.17 364.63 244.68" style="opacity:0.30000000000000004"></polygon><polygon points="364.61 253.89 381.84 263.84 381.84 263.84 381.86 257.33 381.86 257.33 364.62 247.38 364.61 253.89" style="opacity:0.30000000000000004"></polygon><polygon points="381.78 284.6 381.78 284.6 356.46 269.98 356.44 276.49 381.76 291.11 381.78 284.6 381.78 284.6" style="opacity:0.30000000000000004"></polygon><polygon points="423.24 308.54 397.92 293.92 397.91 300.43 423.22 315.05 423.22 315.05 423.22 315.05 423.24 308.54" style="opacity:0.30000000000000004"></polygon><path d="M423.24,308.54l0,6.51h0l7.19,4.14,0-6.51-7.19-4.14Zm2.63,3.77.35.61.6,1.06,1-.56.51.89-1.48.85-1.47-2.55Z" style="fill:#7B0EAD"></path><path d="M423.43,243.84l7.18,4.15,0-6.51-7.19-4.15Zm2.64-2.73,1,1.66,1-.55h0l.52.89L427,244l-1.47-2.55Z" style="opacity:0.4"></path><path d="M423.45,234.15l7.19,4.14v-6.51l-7.18-4.14Zm2.64-2.74,1,1.66,1-.55.51.89-1.48.84-1.47-2.54Z" style="opacity:0.4"></path><path d="M389.11,236l0-6.51L382,225.33l0,6.51Zm-4.54-6.88,1,1.66,1-.55.52.89-1.48.84-1.48-2.55Z" style="opacity:0.4"></path><path d="M381.9,241.05l7.18,4.15,0-6.51-7.18-4.15h0l0,6.51Zm2.64-2.74h0l1,1.66,1-.55.51.9-1.48.84L384,238.61h0Z" style="opacity:0.4"></path><path d="M423.37,265l7.18,4.15,0-6.51-7.19-4.15Zm2.12-2.44.52-.3,1,1.66,1-.55.52.9h0l-1.49.84-1.47-2.55Z" style="opacity:0.4"></path><path d="M423.33,278.57l7.18,4.14,0-6.51-7.18-4.14Zm2.64-2.73,1,1.66,1-.55.52.88-1.49.85-1.47-2.55Z" style="opacity:0.4"></path><path d="M423.3,287.77l7.18,4.15,0-6.51-7.18-4.15Zm2.64-2.73,1,1.67,1-.56.51.89h0l-1.48.85-1.48-2.56Z" style="opacity:0.4"></path><path d="M423.41,249.27l0,6.51,7.18,4.15,0-6.51-7.18-4.15ZM426,253h0l1,1.67,1-.56.51.9-1.48.84-1.47-2.55Z" style="opacity:0.4"></path><path d="M381.86,254.63l7.19,4.14v-6.51l-7.18-4.14,0,6.51Zm2.65-2.73.95,1.66,1-.55.51.88-1.48.85h0L384,252.19Z" style="opacity:0.4"></path><path d="M381.84,263.84h0L389,268l0-6.51-7.18-4.14h0Zm2.64-2.74,1,1.67,1-.56.52.89h0l-1.49.85L384,261.39h0Z" style="opacity:0.4"></path><path d="M381.78,284.6l0,6.51h0l7.18,4.15,0-6.51-7.18-4.15Zm2.62,3.77h0l1,1.67,1-.56.51.89h0l-1.48.85-.54-.93-.94-1.62Z" style="opacity:0.4"></path><path d="M423.24,308.54l0,6.51h0l7.19,4.14,0-6.51-7.19-4.14Zm2.63,3.77.35.61.6,1.06,1-.56.51.89-1.48.85-1.47-2.55Z" style="opacity:0.4"></path><polygon points="428.3 314.31 427.79 313.42 426.82 313.98 426.82 313.98 426.21 312.92 425.87 312.31 425.35 312.61 426.82 315.16 428.3 314.31" style="fill:#fff"></polygon><polygon points="397.98 273.16 403.34 276.25 403.36 269.74 398 266.65 397.98 273.16" style="fill:#fff"></polygon><polygon points="398.01 263.95 403.37 267.04 403.39 260.53 398.03 257.44 398.01 263.95" style="fill:#fff"></polygon><polygon points="428.41 277.83 427.89 276.95 426.93 277.5 425.97 275.84 425.45 276.13 426.92 278.68 428.41 277.83" style="fill:#fff"></polygon><polygon points="428.38 287.04 428.38 287.04 427.87 286.15 426.9 286.71 425.94 285.04 425.42 285.33 426.9 287.89 428.38 287.04" style="fill:#fff"></polygon><polygon points="361.86 258.75 356.5 255.65 356.48 262.16 361.84 265.26 361.86 258.75" style="fill:#fff"></polygon><polygon points="386.92 279.74 392.28 282.83 392.3 276.32 386.94 273.23 386.92 279.74" style="fill:#fff"></polygon><polygon points="396.28 285.14 401.64 288.24 401.66 281.73 396.3 278.63 396.28 285.14" style="fill:#fff"></polygon><polygon points="415.75 289.86 415.73 296.37 421.09 299.46 421.1 292.95 415.75 289.86" style="fill:#fff"></polygon><polygon points="425.08 301.77 430.45 304.87 430.47 298.36 425.1 295.26 425.08 301.77" style="fill:#fff"></polygon><polygon points="425.42 214.72 425.42 215.56 430.69 218.61 430.69 217.76 425.42 214.72" style="fill:#fff"></polygon><polygon points="425.4 219.88 430.68 222.93 430.68 222.09 425.4 219.05 425.4 219.88" style="fill:#fff"></polygon><polygon points="425.41 217.01 430.68 220.05 430.69 219.21 425.41 216.16 425.41 217.01" style="fill:#fff"></polygon><polygon points="425.41 218.44 430.68 221.49 430.68 220.65 425.41 217.61 425.41 218.44" style="fill:#fff"></polygon><path d="M437.6,212.1,361.27,168a1.52,1.52,0,0,0-1.54-.15h0L354,172h0a1.55,1.55,0,0,1,1.53.16l76.33,44.07a4.6,4.6,0,0,1,1.66,1.87l6-3.45A4.73,4.73,0,0,0,437.6,212.1Z" style="fill:#fff;opacity:0.30000000000000004"></path><path d="M433.54,218.07a4.23,4.23,0,0,1,.51,1.9l-.29,104.27a1.58,1.58,0,0,1-.61,1.38h0l5.78-4.14h0a1.63,1.63,0,0,0,.55-1.33l.29-104.27a4,4,0,0,0-.23-1.25Z" style="fill:#fff;opacity:0.2"></path></g><g id="freepik--tool-1--inject-113"><path d="M439.55,118.14,363.23,74.07a1.58,1.58,0,0,0-1.47-.18h0l0,0-.06,0L356,77.13a1.57,1.57,0,0,1,1.48.18l76.32,44.07a4.78,4.78,0,0,1,2.18,3.76l-.21,73.75a1.49,1.49,0,0,1-.65,1.4l5.69-3.22a.3.3,0,0,0,.11-.06h0a1.56,1.56,0,0,0,.57-1.35l.21-73.75A4.77,4.77,0,0,0,439.55,118.14Z" style="fill:#7B0EAD"></path><path d="M435.77,198.89l.21-73.75a4.78,4.78,0,0,0-2.18-3.76L357.48,77.31a1.57,1.57,0,0,0-1.48-.18l-.12.07h0a1.55,1.55,0,0,0-.59,1.36l-.21,73.75a4.81,4.81,0,0,0,2.18,3.76l76.32,44.07a1.54,1.54,0,0,0,1.54.15A1.49,1.49,0,0,0,435.77,198.89Z" style="fill:#7B0EAD"></path><g style="opacity:0.30000000000000004"><path d="M433.81,121.37a4.83,4.83,0,0,1,2.18,3.77l0,8.51L390.33,107.3l0-11Z"></path></g><polygon points="368.81 118.83 368.34 119.09 368.81 118.83 368.81 118.83" style="fill:none"></polygon><polygon points="368.34 117.17 369.89 116.29 368.34 117.17 368.81 117.98 368.34 117.17" style="fill:none"></polygon><polygon points="369.88 121.76 368.34 119.09 369.88 121.76 369.88 121.76" style="fill:none"></polygon><polygon points="409.91 142.56 408.84 143.18 409.91 142.56 409.91 142.56" style="fill:none"></polygon><polygon points="407.31 139.66 407.77 140.47 407.31 139.66 408.85 138.79 410.38 141.44 408.85 138.79 407.31 139.66" style="fill:none"></polygon><polygon points="371.42 120.87 370.95 120.07 371.42 120.87 371.42 120.87" style="fill:none"></polygon><polygon points="368.74 143.69 368.27 143.95 368.74 143.69 368.74 143.69" style="fill:none"></polygon><polygon points="370.88 144.93 369.81 145.54 369.81 145.54 370.88 144.93" style="fill:none"></polygon><polygon points="369.89 117.37 370.56 118.54 369.89 117.37 369.89 117.37" style="fill:none"></polygon><polygon points="368.74 142.83 368.27 142.03 369.82 141.15 369.82 141.15 368.27 142.03 368.74 142.83 368.74 142.83" style="fill:none"></polygon><rect x="368.2" y="126.47" width="1.78" transform="translate(-14.47 197.93) rotate(-29.47)" style="fill:none"></rect><polygon points="370.92 129.81 369.85 130.43 369.85 130.43 370.92 129.81" style="fill:none"></polygon><rect x="409.31" y="164.57" height="2.14" transform="translate(-27.98 226.84) rotate(-30)" style="fill:none"></rect><polygon points="408.76 169.1 407.23 166.45 407.7 166.18 407.23 166.45 408.76 169.1 408.76 169.1" style="fill:none"></polygon><polygon points="407.24 164.53 408.78 163.64 410.31 166.3 410.31 166.3 408.78 163.64 407.24 164.53 407.7 165.33 407.24 164.53" style="fill:none"></polygon><polygon points="360.1 102.78 364.77 105.47 364.77 104.63 360.1 101.94 360.1 102.78" style="fill:#fff"></polygon><polygon points="360.11 101.32 366.04 104.75 366.04 103.91 360.11 100.48 360.11 101.32" style="fill:#fff"></polygon><polygon points="364.78 101.71 360.11 99.01 360.11 99.86 364.77 102.55 364.78 101.71" style="fill:#fff"></polygon><polygon points="360.11 98.4 366.05 101.82 366.05 100.98 360.12 97.56 360.11 98.4" style="fill:#fff"></polygon><polygon points="364.79 98.78 360.12 96.09 360.12 96.94 364.78 99.63 364.79 98.78" style="fill:#fff"></polygon><polygon points="385.05 96.93 360.7 82.87 360.69 86.31 385.04 100.37 385.05 96.93" style="fill:#fff"></polygon><polygon points="372.98 149.05 391.9 159.97 391.92 153.28 373 142.36 372.98 149.05" style="opacity:0.30000000000000004"></polygon><polygon points="366.71 153.79 391.06 167.85 391.07 164.41 366.72 150.35 366.71 153.79" style="fill:#fff"></polygon><polygon points="379.03 111.4 373.09 107.98 373.09 108.82 379.02 112.25 379.03 111.4" style="fill:#fff"></polygon><polygon points="378.01 113.12 378.02 112.28 374.09 110.01 374.09 110.86 378.01 113.12" style="fill:#fff"></polygon><polygon points="374.1 107.09 374.1 107.93 378.02 110.2 378.02 109.36 374.1 107.09" style="fill:#fff"></polygon><polygon points="379.04 108.48 373.1 105.05 373.1 105.89 379.03 109.32 379.04 108.48" style="fill:#fff"></polygon><polygon points="374.11 104.17 374.11 105.01 378.03 107.28 378.03 106.43 374.11 104.17" style="fill:#fff"></polygon><path d="M366.66,120.51l6.39,3.69,0-6.69-6.39-3.69Zm3.23-4.22,1.53,2.66-.47.27-.39-.68-.67-1.17-1.08.61-.47-.81Zm-1.08,2.54h0l1.07,1.85,1.07-.61.47.8h0l-1.54.89h0l-1.54-2.67Z" style="opacity:0.4"></path><polygon points="369.85 130.43 369.85 130.43 369.85 130.43 368.78 128.57 368.31 128.84 369.85 131.5 371.39 130.62 370.92 129.81 369.85 130.43" style="fill:#fff"></polygon><polygon points="368.32 126.91 368.79 127.72 369.86 127.11 370.93 128.96 371.4 128.69 369.87 126.04 368.32 126.91" style="fill:#fff"></polygon><path d="M373,127.25l-6.39-3.68v6.69l6.38,3.68Zm-3.19,4.25-1.54-2.66.47-.27,1.07,1.86h0l1.07-.62.47.81Zm1.07-2.54-1.06-1.85-1.07.61-.47-.81h0l1.54-.87h0l1.54,2.65Z" style="opacity:0.4"></path><polygon points="373.02 133.94 391.94 144.87 391.96 138.18 373.04 127.25 373.02 133.94" style="opacity:0.30000000000000004"></polygon><polygon points="373.05 124.2 391.97 135.12 391.99 128.43 373.07 117.51 373.05 124.2" style="opacity:0.30000000000000004"></polygon><polygon points="387.42 115.63 392.02 118.28 392.02 117.43 387.43 114.78 387.42 115.63" style="fill:#fff"></polygon><polygon points="386.08 116.32 392.01 119.74 392.01 118.9 386.08 115.47 386.08 116.32" style="fill:#fff"></polygon><polygon points="386.09 113.39 392.02 116.82 392.02 115.98 386.09 112.55 386.09 113.39" style="fill:#fff"></polygon><polygon points="387.43 112.71 392.02 115.36 392.03 114.51 387.43 111.86 387.43 112.71" style="fill:#fff"></polygon><polygon points="387.42 118.55 392.01 121.2 392.01 120.36 387.42 117.71 387.42 118.55" style="fill:#fff"></polygon><polygon points="399.08 119.43 405.02 122.86 405.02 122.01 399.08 118.58 399.08 119.43" style="fill:#fff"></polygon><polygon points="399.07 120.89 405.01 124.32 405.01 123.48 399.07 120.05 399.07 120.89" style="fill:#fff"></polygon><polygon points="399.06 125.27 403.26 127.7 403.26 126.86 399.06 124.43 399.06 125.27" style="fill:#fff"></polygon><polygon points="399.06 123.81 405 127.24 405.01 126.4 399.07 122.97 399.06 123.81" style="fill:#fff"></polygon><polygon points="399.07 122.35 405.01 125.78 405.01 124.94 399.07 121.51 399.07 122.35" style="fill:#fff"></polygon><polygon points="417.99 136.2 417.99 135.36 414.12 133.13 414.12 133.97 417.99 136.2" style="fill:#fff"></polygon><polygon points="417.99 133.9 412.05 130.47 412.05 131.31 417.99 134.74 417.99 133.9" style="fill:#fff"></polygon><polygon points="418 132.43 412.06 129 412.05 129.84 417.99 133.28 418 132.43" style="fill:#fff"></polygon><polygon points="418 130.97 412.06 127.55 412.06 128.39 418 131.82 418 130.97" style="fill:#fff"></polygon><polygon points="418 129.51 412.06 126.08 412.06 126.93 418 130.36 418 129.51" style="fill:#fff"></polygon><polygon points="412.01 146.69 430.93 157.62 430.95 150.93 412.02 140 412.01 146.69" style="opacity:0.30000000000000004"></polygon><polygon points="425.03 140.27 430.97 143.7 430.97 142.85 425.03 139.43 425.03 140.27" style="fill:#fff"></polygon><polygon points="425.04 138.81 430.98 142.24 430.98 141.4 425.04 137.97 425.04 138.81" style="fill:#fff"></polygon><polygon points="425.04 137.34 430.98 140.77 430.98 139.93 425.04 136.5 425.04 137.34" style="fill:#fff"></polygon><polygon points="425.04 135.88 430.98 139.31 430.99 138.47 425.05 135.04 425.04 135.88" style="fill:#fff"></polygon><polygon points="425.05 133.58 425.05 134.43 430.99 137.86 430.99 137.01 425.05 133.58" style="fill:#fff"></polygon><polygon points="362.91 114.57 360.07 112.94 360.07 113.78 362.9 115.41 362.91 114.57" style="fill:#fff"></polygon><polygon points="360.07 112.31 363.68 114.39 363.68 113.55 360.08 111.47 360.07 112.31" style="fill:#fff"></polygon><polygon points="362.91 111.65 360.08 110.01 360.08 110.85 362.91 112.49 362.91 111.65" style="fill:#fff"></polygon><polygon points="360.07 115.24 363.67 117.32 363.67 116.47 360.07 114.39 360.07 115.24" style="fill:#fff"></polygon><polygon points="362.9 117.49 360.06 115.85 360.06 116.7 362.89 118.34 362.9 117.49" style="fill:#fff"></polygon><polygon points="368.81 117.98 369.89 117.37 369.89 117.37 370.56 118.54 370.95 119.22 371.43 118.95 369.89 116.29 368.34 117.17 368.81 117.98" style="fill:#fff"></polygon><polygon points="369.88 121.76 371.42 120.87 371.42 120.87 370.95 120.07 369.88 120.68 368.81 118.83 368.81 118.83 368.34 119.09 369.88 121.76 369.88 121.76" style="fill:#fff"></polygon><polygon points="401.86 139.98 399.02 138.34 399.02 139.19 401.85 140.83 401.86 139.98" style="fill:#fff"></polygon><polygon points="399.02 137.73 402.63 139.81 402.63 138.97 399.03 136.89 399.02 137.73" style="fill:#fff"></polygon><polygon points="401.86 137.06 399.03 135.43 399.03 136.27 401.86 137.91 401.86 137.06" style="fill:#fff"></polygon><polygon points="399.03 134.8 402.64 136.88 402.64 136.04 399.04 133.96 399.03 134.8" style="fill:#fff"></polygon><polygon points="401.87 134.14 399.04 132.5 399.04 133.35 401.87 134.98 401.87 134.14" style="fill:#fff"></polygon><polygon points="407.31 139.66 407.77 140.47 408.85 139.86 409.92 141.71 410.38 141.44 408.85 138.79 407.31 139.66" style="fill:#fff"></polygon><polygon points="408.84 143.18 407.77 141.32 407.3 141.59 408.83 144.25 410.38 143.37 409.91 142.56 408.84 143.18" style="fill:#fff"></polygon><path d="M412,140l-6.39-3.68,0,6.69,6.39,3.68Zm-3.19,4.25-1.54-2.66.47-.27,1.07,1.86,1.07-.62h0l.47.8Zm1.08-2.54-1.07-1.85-1.08.61-.46-.81,1.54-.87,1.53,2.65Z" style="opacity:0.4"></path><polygon points="363.61 139.87 360 137.79 360 138.63 363.61 140.71 363.61 139.87" style="fill:#fff"></polygon><polygon points="360 137.17 363.61 139.25 363.61 138.41 360.01 136.33 360 137.17" style="fill:#fff"></polygon><polygon points="360.01 135.71 363.61 137.79 363.62 136.94 360.01 134.86 360.01 135.71" style="fill:#fff"></polygon><polygon points="363.6 141.34 360 139.25 360 140.1 363.6 142.18 363.6 141.34" style="fill:#fff"></polygon><polygon points="363.6 142.79 359.99 140.71 359.99 141.55 363.6 143.63 363.6 142.79" style="fill:#fff"></polygon><polygon points="369.81 145.54 369.81 145.54 369.81 145.54 368.74 143.69 368.27 143.95 369.81 146.61 371.35 145.73 370.88 144.93 369.81 145.54" style="fill:#fff"></polygon><polygon points="368.74 142.83 369.82 142.22 370.88 144.07 371.35 143.81 369.82 141.15 368.27 142.03 368.74 142.83" style="fill:#fff"></polygon><path d="M373,142.36l-6.39-3.69,0,6.7,6.39,3.68Zm-3.18-1.21h0l1.53,2.66-.47.26-1.06-1.85-1.08.61h0l-.47-.8Zm0,5.46L368.27,144l.47-.26h0l1.07,1.85h0l1.07-.61.47.8Z" style="opacity:0.4"></path><polygon points="398.97 158.21 402.57 160.29 402.57 159.44 398.97 157.36 398.97 158.21" style="fill:#fff"></polygon><polygon points="398.96 159.66 402.57 161.75 402.57 160.9 398.96 158.82 398.96 159.66" style="fill:#fff"></polygon><polygon points="398.95 162.59 402.56 164.67 402.56 163.83 398.96 161.75 398.95 162.59" style="fill:#fff"></polygon><polygon points="398.96 161.12 402.56 163.2 402.56 162.36 398.96 160.28 398.96 161.12" style="fill:#fff"></polygon><polygon points="398.95 164.05 402.55 166.13 402.56 165.29 398.95 163.21 398.95 164.05" style="fill:#fff"></polygon><polygon points="411.94 171.54 430.86 182.47 430.88 175.78 411.95 164.85 411.94 171.54" style="opacity:0.30000000000000004"></polygon><polygon points="408.76 169.1 410.31 168.22 409.84 167.42 408.77 168.03 407.7 166.18 407.23 166.45 408.76 169.1" style="fill:#fff"></polygon><path d="M405.55,167.86l6.39,3.68v-6.69l-6.38-3.68Zm3.23-4.22,1.53,2.66h0l-.46.27h0l-1.07-1.86-1.08.62-.46-.81Zm-1.08,2.54,1.07,1.85,1.07-.61.47.8-1.55.88h0l-1.53-2.65Z" style="opacity:0.4"></path><polygon points="407.24 164.53 407.7 165.33 408.78 164.71 408.78 164.71 409.85 166.57 409.85 166.57 410.31 166.3 410.31 166.3 408.78 163.64 407.24 164.53" style="fill:#fff"></polygon><polygon points="360.81 126.89 363.64 128.53 363.64 127.68 360.81 126.05 360.81 126.89" style="fill:#fff"></polygon><polygon points="360.05 122.06 363.65 124.14 363.65 123.29 360.05 121.21 360.05 122.06" style="fill:#fff"></polygon><polygon points="360.82 121.04 363.66 122.68 363.66 121.83 360.82 120.2 360.82 121.04" style="fill:#fff"></polygon><polygon points="360.81 123.97 363.65 125.6 363.65 124.76 360.82 123.12 360.81 123.97" style="fill:#fff"></polygon><polygon points="360.04 124.99 363.64 127.07 363.65 126.22 360.04 124.14 360.04 124.99" style="fill:#fff"></polygon><polygon points="359.97 150.27 363.6 152.36 363.61 148.18 359.98 146.09 359.97 150.27" style="fill:#fff"></polygon><polygon points="425.72 119.96 425.72 120.8 430.99 123.84 430.99 123 425.72 119.96" style="fill:#fff"></polygon><polygon points="425.7 125.12 430.98 128.17 430.98 127.33 425.71 124.29 425.7 125.12" style="fill:#fff"></polygon><polygon points="425.71 122.24 430.98 125.29 430.99 124.44 425.71 121.4 425.71 122.24" style="fill:#fff"></polygon><polygon points="425.71 123.68 430.98 126.72 430.98 125.89 425.71 122.84 425.71 123.68" style="fill:#fff"></polygon><path d="M439.55,118.14,363.23,74.07a1.58,1.58,0,0,0-1.47-.18h0l0,0-.06,0L356,77.13a1.57,1.57,0,0,1,1.48.18l76.32,44.07a4.39,4.39,0,0,1,1.52,1.59l5.74-3.26A4.47,4.47,0,0,0,439.55,118.14Z" style="fill:#fff;opacity:0.30000000000000004"></path><path d="M435.32,123a4.41,4.41,0,0,1,.66,2.17l-.21,73.75a1.49,1.49,0,0,1-.65,1.4l5.69-3.22a.3.3,0,0,0,.11-.06h0a1.56,1.56,0,0,0,.57-1.35l.21-73.75a4.38,4.38,0,0,0-.66-2.19Z" style="fill:#fff;opacity:0.2"></path></g><g id="freepik--Plants--inject-113"><path d="M425.53,349.94l15.4.45,15.39-.45c.66,10.4-1.37,21-4.16,26.17h0a7,7,0,0,1-3,3.1c-4.54,2.62-11.88,2.62-16.4,0a6.84,6.84,0,0,1-3-3.18C426.88,370.82,424.87,360.29,425.53,349.94Z" style="fill:#fff"></path><path d="M430.08,343.64c-6,3.48-6.06,9.13-.07,12.61s15.74,3.48,21.77,0,6.06-9.13.07-12.61S436.11,340.16,430.08,343.64Z" style="fill:#ebebeb"></path><path d="M432.46,345c-4.7,2.71-4.73,7.12,0,9.83s12.28,2.72,17,0,4.73-7.12.06-9.83S437.17,342.31,432.46,345Z" style="fill:#e0e0e0"></path><g style="opacity:0.15"><path d="M432.46,345c-4.7,2.71-4.73,7.12,0,9.83s12.28,2.72,17,0,4.73-7.12.06-9.83S437.17,342.31,432.46,345Z"></path></g><path d="M448.78,318.44c2.5-3.11,5.41-5.9,7.71-9.17,1.56-2.23,2.87-5,2.21-7.6a6.79,6.79,0,0,0-5.39-4.74,10.29,10.29,0,0,0-7.23,1.61,22.51,22.51,0,0,0-5.47,5.2,54.35,54.35,0,0,0-11.44,38.79A8.12,8.12,0,0,0,430.6,347a4.47,4.47,0,0,0,4.6,1.41c4.2-1.25,3.64-6.91,4.32-10.24a46.89,46.89,0,0,1,4.82-13.08A45.46,45.46,0,0,1,448.78,318.44Z" style="fill:#7B0EAD"></path><path d="M448.78,318.44c2.5-3.11,5.41-5.9,7.71-9.17,1.56-2.23,2.87-5,2.21-7.6a6.79,6.79,0,0,0-5.39-4.74,10.29,10.29,0,0,0-7.23,1.61,22.51,22.51,0,0,0-5.47,5.2,54.35,54.35,0,0,0-11.44,38.79A8.12,8.12,0,0,0,430.6,347a4.47,4.47,0,0,0,4.6,1.41c4.2-1.25,3.64-6.91,4.32-10.24a46.89,46.89,0,0,1,4.82-13.08A45.46,45.46,0,0,1,448.78,318.44Z" style="fill:#fff;opacity:0.4"></path><path d="M434.94,344.18a.39.39,0,0,0,.3-.35c.29-6.73,2.48-29.71,18.31-42.74a.37.37,0,0,0,.05-.52.36.36,0,0,0-.51-.05C437,313.75,434.8,337,434.5,343.8a.37.37,0,0,0,.35.38Z" style="fill:#f0f0f0"></path><path d="M432.63,344.9a11.22,11.22,0,0,0,5.14,7.13,14.52,14.52,0,0,0,7.78,1.31,34.31,34.31,0,0,0,7.9-1.88c1.27-.42,2.68-1,2.81-2.57a2.83,2.83,0,0,0-.89-2.22c-.26-.24-.53-.48-.82-.7a.81.81,0,0,1,.43-1.46,18.94,18.94,0,0,0,2.25-.28,9.93,9.93,0,0,0,4.73-2.14,7.89,7.89,0,0,0,2.18-3.23,3,3,0,0,0-.31-3.17,3.34,3.34,0,0,0-1.75-.76c-.57-.13-1.13-.23-1.7-.32a.75.75,0,0,1-.17-1.43l2.39-1a4.46,4.46,0,0,0,1.81-1.12,4,4,0,0,0,.46-3.29c-.29-1.5-.81-2.94-1.16-4.42a9.49,9.49,0,0,1-.16-4.52,38.13,38.13,0,0,0-13.38.89,9.66,9.66,0,0,0-3.65,1.6c-1.49,1.19-1.87,3-1.72,4.92a.35.35,0,0,1-.65.18l-1.52-2.82a1.81,1.81,0,0,0-2.37-.75,10.69,10.69,0,0,0-3.49,2.74,6.05,6.05,0,0,0-1.5,4.47,38.34,38.34,0,0,0,1.12,6.55.61.61,0,0,1-.95.65l-.08-.06a2.08,2.08,0,0,0-1.44-.42c-1.34.17-1.69,1.54-1.78,2.7A22.38,22.38,0,0,0,432.63,344.9Z" style="fill:#7B0EAD"></path><path d="M432.63,344.9a11.22,11.22,0,0,0,5.14,7.13,14.52,14.52,0,0,0,7.78,1.31,34.31,34.31,0,0,0,7.9-1.88c1.27-.42,2.68-1,2.81-2.57a2.83,2.83,0,0,0-.89-2.22c-.26-.24-.53-.48-.82-.7a.81.81,0,0,1,.43-1.46,18.94,18.94,0,0,0,2.25-.28,9.93,9.93,0,0,0,4.73-2.14,7.89,7.89,0,0,0,2.18-3.23,3,3,0,0,0-.31-3.17,3.34,3.34,0,0,0-1.75-.76c-.57-.13-1.13-.23-1.7-.32a.75.75,0,0,1-.17-1.43l2.39-1a4.46,4.46,0,0,0,1.81-1.12,4,4,0,0,0,.46-3.29c-.29-1.5-.81-2.94-1.16-4.42a9.49,9.49,0,0,1-.16-4.52,38.13,38.13,0,0,0-13.38.89,9.66,9.66,0,0,0-3.65,1.6c-1.49,1.19-1.87,3-1.72,4.92a.35.35,0,0,1-.65.18l-1.52-2.82a1.81,1.81,0,0,0-2.37-.75,10.69,10.69,0,0,0-3.49,2.74,6.05,6.05,0,0,0-1.5,4.47,38.34,38.34,0,0,0,1.12,6.55.61.61,0,0,1-.95.65l-.08-.06a2.08,2.08,0,0,0-1.44-.42c-1.34.17-1.69,1.54-1.78,2.7A22.38,22.38,0,0,0,432.63,344.9Z" style="opacity:0.2"></path><path d="M432.63,344.9a11.22,11.22,0,0,0,5.14,7.13,14.52,14.52,0,0,0,7.78,1.31,34.31,34.31,0,0,0,7.9-1.88c1.27-.42,2.68-1,2.81-2.57a2.83,2.83,0,0,0-.89-2.22c-.26-.24-.53-.48-.82-.7a.81.81,0,0,1,.43-1.46,18.94,18.94,0,0,0,2.25-.28,9.93,9.93,0,0,0,4.73-2.14,7.89,7.89,0,0,0,2.18-3.23,3,3,0,0,0-.31-3.17,3.34,3.34,0,0,0-1.75-.76c-.57-.13-1.13-.23-1.7-.32a.75.75,0,0,1-.17-1.43l2.39-1a4.46,4.46,0,0,0,1.81-1.12,4,4,0,0,0,.46-3.29c-.29-1.5-.81-2.94-1.16-4.42a9.49,9.49,0,0,1-.16-4.52,38.13,38.13,0,0,0-13.38.89,9.66,9.66,0,0,0-3.65,1.6c-1.49,1.19-1.87,3-1.72,4.92a.35.35,0,0,1-.65.18l-1.52-2.82a1.81,1.81,0,0,0-2.37-.75,10.69,10.69,0,0,0-3.49,2.74,6.05,6.05,0,0,0-1.5,4.47,38.34,38.34,0,0,0,1.12,6.55.61.61,0,0,1-.95.65l-.08-.06a2.08,2.08,0,0,0-1.44-.42c-1.34.17-1.69,1.54-1.78,2.7A22.38,22.38,0,0,0,432.63,344.9Z" style="fill:#fff;opacity:0.30000000000000004"></path><path d="M439.72,351.67a53.92,53.92,0,0,1,3.6-10.43.32.32,0,0,1,.13-.27c.08-.19.16-.37.25-.55a33.58,33.58,0,0,0-3.57-11.94.37.37,0,0,1,.64-.36,34,34,0,0,1,3.51,11.09,49,49,0,0,1,15.41-18.47.38.38,0,0,1,.51.09.39.39,0,0,1-.09.52c-7.74,5.38-12.62,12.84-15.59,19a22.45,22.45,0,0,1,12.75-1.73.36.36,0,0,1,.29.43.35.35,0,0,1-.28.29h-.14c-.07,0-7.08-1.29-13.13,2.1a54.17,54.17,0,0,0-3.57,10.33.38.38,0,0,1-.29.29H440A.37.37,0,0,1,439.72,351.67Z" style="fill:#f0f0f0"></path><path d="M38.59,341.76l16.22.47L71,341.76c.7,10.95-1.44,22.12-4.39,27.57h0a7.41,7.41,0,0,1-3.21,3.27c-4.79,2.76-12.53,2.76-17.28,0a7.23,7.23,0,0,1-3.21-3.35C40,363.76,37.9,352.66,38.59,341.76Z" style="fill:#fff"></path><path d="M43.38,335.11C37,338.78,37,344.73,43.3,348.4s16.59,3.67,23,0,6.39-9.62.07-13.29S49.74,331.44,43.38,335.11Z" style="fill:#ebebeb"></path><path d="M45.89,336.57c-5,2.87-5,7.51-.06,10.37s13,2.86,17.9,0,5-7.5.06-10.37S50.85,333.71,45.89,336.57Z" style="fill:#e0e0e0"></path><g style="opacity:0.15"><path d="M45.89,336.57c-5,2.87-5,7.51-.06,10.37s13,2.86,17.9,0,5-7.5.06-10.37S50.85,333.71,45.89,336.57Z"></path></g><path d="M28.14,272.53C64.7,284.5,65,309,56.79,326.37c-2.08,3.53-8.37,5.42-13.84-16.24l9.6,1.23-11.19-5.67L38.45,297l9.33.7-11.84-5A175.74,175.74,0,0,0,28.14,272.53Z" style="fill:#7B0EAD"></path><path d="M28.14,272.53C64.7,284.5,65,309,56.79,326.37c-2.08,3.53-8.37,5.42-13.84-16.24l9.6,1.23-11.19-5.67L38.45,297l9.33.7-11.84-5A175.74,175.74,0,0,0,28.14,272.53Z" style="opacity:0.2"></path><path d="M38.48,278.64c19.28,14.64,21,31.41,15.57,48.93C56,312.15,58.06,296.55,38.48,278.64Z" style="fill:#fff"></path><path d="M90.06,297.37c-36,5.08-40.41,27.8-35.62,45.39,1.35,3.63,6.89,6.44,15.59-12.83l-9.15-.44,11.37-3.43,4.15-7.61-8.81-.9,11.86-2.67A167.4,167.4,0,0,1,90.06,297.37Z" style="fill:#7B0EAD"></path><path d="M79.42,301.35c-20.39,10.43-24.8,25.76-22.64,43C57.55,329.64,58.2,314.78,79.42,301.35Z" style="fill:#fff"></path><path d="M17.59,305.89c33.05.54,39.54,20.53,37.19,36.92-.81,3.42-5.49,6.57-15.48-9.82l8.19-1.42-10.63-1.82-4.59-6.39,7.84-1.8-11-1.08A148.87,148.87,0,0,0,17.59,305.89Z" style="fill:#7B0EAD"></path><path d="M27.63,308.28c19.55,7.12,25.24,20.44,25.21,36.2C50.51,331.34,48.26,318,27.63,308.28Z" style="fill:#fff"></path><path d="M17.59,305.89c33.05.54,39.54,20.53,37.19,36.92-.81,3.42-5.49,6.57-15.48-9.82l8.19-1.42-10.63-1.82-4.59-6.39,7.84-1.8-11-1.08A148.87,148.87,0,0,0,17.59,305.89Z" style="fill:#fff;opacity:0.2"></path></g></svg>