<svg id="visual" viewBox="0 0 900 600" width="900" height="600" xmlns="http://www.w3.org/2000/svg" xmlns:xlink="http://www.w3.org/1999/xlink" version="1.1"><rect x="0" y="0" width="900" height="600" fill="#333"></rect><path d="M0 74L21.5 80.8C43 87.7 86 101.3 128.8 101.3C171.7 101.3 214.3 87.7 257.2 80C300 72.3 343 70.7 385.8 68.7C428.7 66.7 471.3 64.3 514.2 71.7C557 79 600 96 642.8 99.2C685.7 102.3 728.3 91.7 771.2 90.8C814 90 857 99 878.5 103.5L900 108L900 0L878.5 0C857 0 814 0 771.2 0C728.3 0 685.7 0 642.8 0C600 0 557 0 514.2 0C471.3 0 428.7 0 385.8 0C343 0 300 0 257.2 0C214.3 0 171.7 0 128.8 0C86 0 43 0 21.5 0L0 0Z" fill="#222" stroke-linecap="round" stroke-linejoin="miter"></path></svg>